<svg width="24" height="24" viewBox="0 0 24 24" fill="none" xmlns="http://www.w3.org/2000/svg">
<path d="M3 9.703V19C3 20.105 3.895 21 5 21H18.999C20.104 21 20.999 20.105 20.999 19V9.703" stroke="#323232" stroke-width="1.5" stroke-linecap="round" stroke-linejoin="round"/>
<path fill-rule="evenodd" clip-rule="evenodd" d="M3.886 8.04401L10.88 3.33901C11.557 2.88401 12.442 2.88401 13.119 3.33901L20.113 8.04401C21.291 8.83701 21.291 10.57 20.113 11.363L14.239 15.315C12.885 16.226 11.115 16.226 9.761 15.315L3.887 11.363C2.708 10.57 2.708 8.83601 3.886 8.04401Z" stroke="#323232" stroke-width="1.5" stroke-linecap="round" stroke-linejoin="round"/>
<path d="M9.12 14.88L3.59 20.41" stroke="#323232" stroke-width="1.5" stroke-linecap="round" stroke-linejoin="round"/>
<path d="M20.41 20.41L14.88 14.88" stroke="#323232" stroke-width="1.5" stroke-linecap="round" stroke-linejoin="round"/>
</svg>
