<svg width="16" height="20" viewBox="0 0 16 20" fill="none" xmlns="http://www.w3.org/2000/svg">
<path d="M6 14.5C5.27238 14.5 4.20923 14.6793 3.31543 15.0371C2.86812 15.2161 2.43172 15.4522 2.09912 15.7587C1.76317 16.0683 1.5 16.4835 1.5 17V18V18.5H2H10H10.5V18V17C10.5 16.4835 10.2368 16.0683 9.90088 15.7587C9.56828 15.4522 9.13188 15.2161 8.68457 15.0371C7.79077 14.6793 6.72762 14.5 6 14.5ZM6 14.5C5.33696 14.5 4.70107 14.2366 4.23223 13.7678C3.76339 13.2989 3.5 12.663 3.5 12C3.5 11.337 3.76339 10.7011 4.23223 10.2322C4.70107 9.76339 5.33696 9.5 6 9.5C6.66304 9.5 7.29893 9.76339 7.76777 10.2322C8.23661 10.7011 8.5 11.337 8.5 12C8.5 12.663 8.23661 13.2989 7.76777 13.7678C7.29893 14.2366 6.66304 14.5 6 14.5ZM8.5 7V7.5H9H14.5H15.5V18C15.5 18.3978 15.342 18.7794 15.0607 19.0607C14.7794 19.342 14.3978 19.5 14 19.5H2C1.16777 19.5 0.5 18.8255 0.5 18V2C0.5 1.16614 1.16614 0.5 2 0.5H8.5V1.5V7ZM15.5 6.20711V7.29289L14.8536 6.64645L9.35355 1.14645L8.70711 0.5H9.79289L15.5 6.20711Z" stroke="#323232"/>
</svg>
