<svg width="40" height="40" viewBox="0 0 40 40" fill="none" xmlns="http://www.w3.org/2000/svg">
<path fill-rule="evenodd" clip-rule="evenodd" d="M1.66675 7.5C1.66675 6.11929 2.78604 5 4.16675 5H35.8334C37.2141 5 38.3334 6.11929 38.3334 7.5C38.3334 8.88071 37.2141 10 35.8334 10H4.16675C2.78604 10 1.66675 8.88071 1.66675 7.5Z" fill="#444358"/>
<path fill-rule="evenodd" clip-rule="evenodd" d="M1.66675 20C1.66675 18.6193 2.78604 17.5 4.16675 17.5H29.1667C30.5475 17.5 31.6667 18.6193 31.6667 20C31.6667 21.3807 30.5475 22.5 29.1667 22.5H4.16675C2.78604 22.5 1.66675 21.3807 1.66675 20Z" fill="#444358"/>
<path fill-rule="evenodd" clip-rule="evenodd" d="M1.66675 32.5C1.66675 31.1193 2.78604 30 4.16675 30H22.5001C23.8808 30 25.0001 31.1193 25.0001 32.5C25.0001 33.8807 23.8808 35 22.5001 35H4.16675C2.78604 35 1.66675 33.8807 1.66675 32.5Z" fill="#444358"/>
</svg>
