<svg width="24" height="24" viewBox="0 0 24 24" fill="none" xmlns="http://www.w3.org/2000/svg">
<path fill-rule="evenodd" clip-rule="evenodd" d="M9.484 15.696L8.773 15L6.221 17.607L4.682 16.155L3.984 16.864L6.234 19L9.484 15.696ZM9.484 10.696L8.773 10L6.221 12.607L4.682 11.155L3.984 11.864L6.234 14L9.484 10.696ZM9.484 5.696L8.773 5L6.221 7.607L4.682 6.155L3.984 6.864L6.234 9L9.484 5.696ZM20 17H12V18H20V17ZM20 12H12V13H20V12ZM20 7H12V8H20V7ZM24 2H0V22H24V2ZM23 21H1V3H23V21Z" fill="white"/>
</svg>
