<svg width="25" height="24" viewBox="0 0 25 24" fill="none" xmlns="http://www.w3.org/2000/svg">
<path d="M20.9316 7H4.93164C3.82707 7 2.93164 7.89543 2.93164 9V19C2.93164 20.1046 3.82707 21 4.93164 21H20.9316C22.0362 21 22.9316 20.1046 22.9316 19V9C22.9316 7.89543 22.0362 7 20.9316 7Z" stroke="#444358" stroke-width="2" stroke-linecap="round" stroke-linejoin="round"/>
<path d="M16.9316 21V5C16.9316 4.46957 16.7209 3.96086 16.3459 3.58579C15.9708 3.21071 15.4621 3 14.9316 3H10.9316C10.4012 3 9.8925 3.21071 9.51743 3.58579C9.14235 3.96086 8.93164 4.46957 8.93164 5V21" stroke="#444358" stroke-width="2" stroke-linecap="round" stroke-linejoin="round"/>
</svg>
