<svg width="800" height="800" viewBox="0 0 800 800" fill="none" xmlns="http://www.w3.org/2000/svg">
<path d="M738.064 457.6C752.562 410.245 760.265 361.072 760.944 311.552C761.744 260.576 756.144 205.456 722.544 167.248C689.552 129.888 636.608 117.12 586.8 114.944C566.624 114.08 546.016 114.656 526.864 121.056C488.192 133.984 461.088 168.272 426.784 190.32C360.56 232.88 271.088 227.84 207.424 274.144C191.126 286.205 176.939 300.884 165.44 317.584C119.04 384.064 115.408 476.16 150.832 549.088C186.256 622.016 257.408 674.944 336.144 694.4C414.88 713.856 499.84 701.008 572.8 665.6C657.808 624.336 710.752 545.344 738.064 457.6Z" fill="#92E3A9"/>
<path opacity="0.7" d="M738.064 457.6C752.562 410.245 760.265 361.072 760.944 311.552C761.744 260.576 756.144 205.456 722.544 167.248C689.552 129.888 636.608 117.12 586.8 114.944C566.624 114.08 546.016 114.656 526.864 121.056C488.192 133.984 461.088 168.272 426.784 190.32C360.56 232.88 271.088 227.84 207.424 274.144C191.126 286.205 176.939 300.884 165.44 317.584C119.04 384.064 115.408 476.16 150.832 549.088C186.256 622.016 257.408 674.944 336.144 694.4C414.88 713.856 499.84 701.008 572.8 665.6C657.808 624.336 710.752 545.344 738.064 457.6Z" fill="white"/>
<path d="M620.608 150.896V484.432C620.61 486.792 620.147 489.13 619.244 491.311C618.342 493.491 617.019 495.473 615.35 497.142C613.681 498.811 611.699 500.134 609.519 501.037C607.338 501.939 605 502.402 602.64 502.4H157.84C155.477 502.408 153.135 501.95 150.949 501.05C148.764 500.151 146.777 498.828 145.105 497.158C143.432 495.488 142.106 493.504 141.202 491.32C140.299 489.136 139.836 486.795 139.84 484.432V150.896C139.838 148.537 140.301 146.201 141.202 144.021C142.103 141.841 143.425 139.86 145.092 138.192C146.76 136.523 148.739 135.199 150.918 134.296C153.097 133.393 155.433 132.928 157.792 132.928H602.592C604.956 132.92 607.299 133.378 609.485 134.278C611.672 135.177 613.659 136.499 615.333 138.169C617.007 139.839 618.335 141.822 619.24 144.006C620.145 146.19 620.61 148.532 620.608 150.896V150.896Z" fill="white"/>
<path d="M620.608 161.2V484.4C620.614 486.763 620.154 489.104 619.254 491.288C618.353 493.473 617.031 495.458 615.361 497.131C613.692 498.803 611.709 500.129 609.526 501.034C607.343 501.938 605.003 502.402 602.64 502.4H157.84C156.151 502.404 154.47 502.167 152.848 501.696L620.608 161.2Z" fill="#263238"/>
<path opacity="0.9" d="M620.608 161.2V484.4C620.614 486.763 620.154 489.104 619.254 491.288C618.353 493.473 617.031 495.458 615.361 497.131C613.692 498.803 611.709 500.129 609.526 501.034C607.343 501.938 605.003 502.402 602.64 502.4H157.84C156.151 502.404 154.47 502.167 152.848 501.696L620.608 161.2Z" fill="white"/>
<path d="M497.296 341.76L521.6 330.816L516.416 301.84L489.6 299.696C486.241 290.748 481.728 282.276 476.176 274.496L484.56 260.304L489.92 251.2L469.12 230.56L445.84 244.544C432.47 235.317 417.283 229.055 401.296 226.176L394.592 199.488H365.216L358.4 226.368C349.32 228.196 340.475 231.04 332.032 234.848L310.928 216.672L286.848 233.072L296.864 259.072C290.495 265.67 284.985 273.045 280.464 281.024L252.752 278.224L242.784 305.888L265.6 321.456C264.491 327.951 263.956 334.531 264 341.12C263.808 343.831 263.808 346.553 264 349.264L239.776 362.864L247.456 391.2H274.816C277.439 396.84 280.51 402.26 284 407.408C285.792 410.043 287.685 412.608 289.68 415.104L277.872 439.504L300.48 458.464L322.288 442.128C330.579 446.92 339.437 450.655 348.656 453.248L353.024 479.616L382.4 482.224L391.2 457.36C400.794 456.406 410.244 454.339 419.36 451.2L438 469.824L463.52 455.104L456.496 429.696C463.912 423.479 470.514 416.351 476.144 408.48L502 413.12L514.448 386.464L494.128 370.08C496.331 360.804 497.395 351.294 497.296 341.76V341.76ZM430.176 341.76C430.175 353.306 426.173 364.495 418.851 373.423C411.529 382.35 401.34 388.465 390.017 390.725C378.694 392.986 366.938 391.253 356.749 385.822C346.561 380.39 338.569 371.596 334.134 360.935C329.699 350.275 329.096 338.407 332.427 327.352C335.757 316.296 342.816 306.737 352.401 300.3C361.986 293.863 373.506 290.947 385 292.047C396.493 293.148 407.25 298.197 415.44 306.336C416.336 307.232 417.216 308.16 418.016 309.136C425.806 318.101 430.121 329.563 430.176 341.44V341.76Z" fill="#92E3A9" stroke="#263238" stroke-width="1.02934" stroke-miterlimit="10"/>
<path opacity="0.2" d="M494.128 370L514.448 386.384L502 413.04L476.144 408.4C470.514 416.271 463.912 423.399 456.496 429.616L463.52 455.024L438 469.744L419.36 451.2C410.237 454.368 400.776 456.462 391.168 457.44L382.4 482.224L353.04 479.616L348.672 453.248C339.453 450.655 330.595 446.92 322.304 442.128L300.496 458.464L277.888 439.504L289.6 415.104C287.605 412.608 285.712 410.043 283.92 407.408L337.712 368C343.429 377.242 352.003 384.369 362.134 388.3C372.266 392.231 383.403 392.751 393.857 389.783C404.311 386.814 413.513 380.518 420.067 371.85C426.621 363.181 430.17 352.612 430.176 341.744V341.424C430.121 329.547 425.806 318.085 418.016 309.12L484.624 260.288L476.24 274.48C481.771 282.269 486.262 290.746 489.6 299.696L516.288 301.84L521.6 330.816L497.36 341.76C497.432 351.27 496.346 360.753 494.128 370V370Z" fill="black"/>
<path d="M598.272 264.736L599.488 264.176C600.169 263.878 600.729 263.359 601.078 262.702C601.426 262.046 601.543 261.291 601.408 260.56L601.152 259.072C601.031 258.34 600.667 257.67 600.118 257.17C599.57 256.671 598.868 256.371 598.128 256.32L596.656 256.208C596.082 256.17 595.528 255.983 595.049 255.666C594.569 255.349 594.18 254.913 593.92 254.4C593.52 253.552 593.104 252.8 592.64 251.952C592.349 251.452 592.196 250.883 592.196 250.304C592.196 249.725 592.349 249.157 592.64 248.656L593.392 247.376C593.765 246.735 593.915 245.989 593.819 245.254C593.724 244.519 593.388 243.836 592.864 243.312L591.808 242.256C591.294 241.707 590.604 241.357 589.858 241.266C589.112 241.176 588.358 241.35 587.728 241.76L586.432 242.528C585.931 242.819 585.363 242.972 584.784 242.972C584.205 242.972 583.637 242.819 583.136 242.528C581.036 241.32 578.78 240.405 576.432 239.808C575.856 239.657 575.331 239.352 574.914 238.927C574.497 238.502 574.204 237.971 574.064 237.392L573.68 235.792C573.51 235.052 573.088 234.394 572.487 233.93C571.886 233.466 571.143 233.225 570.384 233.248H568.912C568.155 233.224 567.414 233.463 566.813 233.924C566.212 234.385 565.789 235.039 565.616 235.776L565.2 237.376C565.056 237.942 564.766 238.46 564.359 238.879C563.952 239.297 563.442 239.601 562.88 239.76C562.048 239.984 561.28 240.24 560.464 240.528C559.91 240.731 559.313 240.781 558.733 240.674C558.153 240.567 557.613 240.307 557.168 239.92L555.84 238.784C555.287 238.301 554.588 238.017 553.854 237.976C553.121 237.935 552.395 238.141 551.792 238.56L550.624 239.344C549.997 239.766 549.532 240.389 549.308 241.111C549.084 241.833 549.114 242.609 549.392 243.312L549.984 244.912C550.196 245.458 550.261 246.05 550.171 246.629C550.081 247.208 549.84 247.752 549.472 248.208C548.944 248.832 548.448 249.488 547.984 250.16C547.658 250.658 547.199 251.056 546.659 251.307C546.119 251.559 545.519 251.655 544.928 251.584L543.328 251.424C542.587 251.343 541.84 251.515 541.209 251.913C540.578 252.311 540.101 252.912 539.856 253.616L539.328 255.072C539.072 255.757 539.051 256.507 539.268 257.205C539.485 257.903 539.929 258.509 540.528 258.928L542.048 260C542.522 260.336 542.899 260.791 543.141 261.319C543.382 261.847 543.48 262.43 543.424 263.008C543.333 263.869 543.291 264.734 543.296 265.6V265.6C543.278 266.162 543.123 266.711 542.844 267.199C542.565 267.687 542.171 268.1 541.696 268.4L540.096 269.248C539.435 269.605 538.916 270.178 538.626 270.87C538.335 271.563 538.289 272.334 538.496 273.056L538.88 274.496C539.068 275.22 539.497 275.858 540.096 276.306C540.695 276.753 541.429 276.984 542.176 276.96H543.776C544.354 276.951 544.925 277.094 545.43 277.374C545.936 277.655 546.358 278.064 546.656 278.56C547.104 279.344 547.584 280.16 548.08 280.848C548.409 281.326 548.606 281.883 548.651 282.462C548.696 283.04 548.587 283.621 548.336 284.144L547.664 285.536C547.332 286.204 547.237 286.966 547.394 287.695C547.551 288.425 547.951 289.079 548.528 289.552L549.664 290.512C550.231 290.999 550.948 291.278 551.695 291.304C552.442 291.331 553.176 291.102 553.776 290.656L554.944 289.84C555.416 289.501 555.97 289.292 556.549 289.236C557.128 289.18 557.711 289.278 558.24 289.52C559.072 289.92 559.92 290.288 560.8 290.608C561.343 290.809 561.823 291.151 562.191 291.598C562.559 292.044 562.802 292.581 562.896 293.152L563.136 294.576C563.255 295.312 563.62 295.985 564.173 296.486C564.726 296.986 565.432 297.283 566.176 297.328L567.68 297.472C568.417 297.537 569.155 297.353 569.775 296.95C570.396 296.547 570.864 295.948 571.104 295.248L571.568 293.952C571.766 293.398 572.107 292.906 572.556 292.526C573.006 292.147 573.548 291.894 574.128 291.792C575.062 291.65 575.986 291.452 576.896 291.2C577.459 291.04 578.055 291.038 578.619 291.193C579.183 291.348 579.694 291.655 580.096 292.08L581.072 293.072C581.586 293.601 582.263 293.942 582.994 294.04C583.725 294.139 584.468 293.99 585.104 293.616L586.416 292.864C587.073 292.507 587.59 291.938 587.881 291.248C588.171 290.559 588.219 289.792 588.016 289.072L587.648 287.776C587.476 287.203 587.462 286.593 587.609 286.013C587.755 285.433 588.056 284.903 588.48 284.48C589.168 283.811 589.819 283.106 590.432 282.368C590.807 281.9 591.306 281.547 591.871 281.349C592.437 281.151 593.047 281.116 593.632 281.248L594.944 281.488C595.673 281.648 596.435 281.549 597.098 281.207C597.761 280.865 598.284 280.303 598.576 279.616L599.2 278.256C599.528 277.581 599.614 276.815 599.446 276.084C599.277 275.353 598.863 274.702 598.272 274.24L597.28 273.44C596.825 273.08 596.473 272.607 596.259 272.067C596.046 271.528 595.978 270.942 596.064 270.368C596.222 269.388 596.323 268.4 596.368 267.408C596.424 266.835 596.63 266.287 596.964 265.818C597.298 265.349 597.749 264.976 598.272 264.736V264.736ZM586.448 265.6C586.448 268.904 585.468 272.133 583.633 274.88C581.797 277.627 579.189 279.768 576.136 281.033C573.084 282.297 569.725 282.628 566.485 281.983C563.245 281.339 560.269 279.748 557.932 277.412C555.596 275.075 554.005 272.099 553.361 268.859C552.716 265.619 553.047 262.26 554.312 259.208C555.576 256.155 557.717 253.547 560.464 251.711C563.211 249.876 566.44 248.896 569.744 248.896C574.153 248.892 578.384 250.636 581.509 253.746C584.635 256.856 586.399 261.079 586.416 265.488L586.448 265.6Z" fill="#92E3A9" stroke="#263238" stroke-width="1.02934" stroke-miterlimit="10"/>
<path d="M620.608 150.896V151.808H139.84V150.896C139.838 148.537 140.301 146.201 141.202 144.021C142.103 141.841 143.425 139.86 145.092 138.192C146.76 136.523 148.739 135.199 150.918 134.296C153.097 133.393 155.433 132.928 157.792 132.928H602.592C604.956 132.92 607.299 133.378 609.485 134.278C611.672 135.177 613.659 136.499 615.333 138.169C617.007 139.839 618.335 141.822 619.24 144.006C620.145 146.19 620.61 148.532 620.608 150.896V150.896Z" fill="#263238"/>
<path d="M620.608 150.896V484.432C620.61 486.792 620.147 489.13 619.245 491.311C618.342 493.491 617.019 495.473 615.35 497.142C613.681 498.811 611.699 500.134 609.519 501.037C607.338 501.939 605 502.402 602.64 502.4H157.84C155.477 502.406 153.136 501.946 150.952 501.046C148.767 500.145 146.782 498.823 145.109 497.153C143.437 495.484 142.111 493.501 141.206 491.318C140.302 489.135 139.838 486.795 139.84 484.432V150.896C139.838 148.537 140.301 146.201 141.202 144.021C142.103 141.841 143.425 139.86 145.092 138.192C146.76 136.523 148.739 135.199 150.918 134.296C153.097 133.393 155.433 132.928 157.792 132.928H602.592C604.956 132.92 607.299 133.378 609.485 134.278C611.672 135.177 613.659 136.499 615.333 138.169C617.007 139.839 618.335 141.822 619.24 144.006C620.145 146.19 620.61 148.532 620.608 150.896V150.896Z" stroke="#263238" stroke-width="1.02934" stroke-linecap="round" stroke-linejoin="round"/>
<path d="M139.84 150.896H620.608" stroke="#263238" stroke-width="1.02934" stroke-linecap="round" stroke-linejoin="round"/>
<path d="M179.92 142.4C179.92 143.122 179.706 143.827 179.305 144.427C178.904 145.027 178.335 145.494 177.668 145.77C177.001 146.046 176.268 146.119 175.56 145.978C174.853 145.837 174.203 145.49 173.692 144.98C173.182 144.469 172.835 143.819 172.694 143.112C172.553 142.404 172.626 141.671 172.902 141.004C173.178 140.337 173.645 139.768 174.245 139.367C174.845 138.966 175.551 138.752 176.272 138.752C177.24 138.752 178.167 139.136 178.852 139.82C179.536 140.505 179.92 141.432 179.92 142.4Z" fill="#92E3A9"/>
<path d="M197.184 142.4C197.178 143.123 196.957 143.827 196.549 144.424C196.141 145.021 195.566 145.484 194.895 145.753C194.224 146.022 193.488 146.086 192.781 145.936C192.074 145.787 191.427 145.43 190.923 144.913C190.418 144.395 190.079 143.739 189.948 143.028C189.818 142.317 189.901 141.583 190.188 140.92C190.475 140.256 190.952 139.693 191.56 139.301C192.167 138.91 192.877 138.707 193.6 138.72C194.562 138.737 195.478 139.133 196.15 139.822C196.821 140.511 197.193 141.438 197.184 142.4Z" fill="#92E3A9"/>
<path d="M214.4 142.4C214.4 143.122 214.186 143.827 213.785 144.427C213.384 145.027 212.815 145.494 212.148 145.77C211.481 146.046 210.748 146.119 210.04 145.978C209.333 145.837 208.683 145.49 208.173 144.98C207.662 144.469 207.315 143.819 207.174 143.112C207.033 142.404 207.106 141.671 207.382 141.004C207.658 140.337 208.125 139.768 208.725 139.367C209.325 138.966 210.031 138.752 210.752 138.752C211.231 138.752 211.705 138.846 212.148 139.03C212.591 139.213 212.993 139.482 213.332 139.82C213.67 140.159 213.939 140.561 214.122 141.004C214.306 141.447 214.4 141.921 214.4 142.4Z" fill="#92E3A9"/>
<path d="M457.008 341.76C457.008 356.864 452.529 371.629 444.138 384.188C435.746 396.746 423.819 406.535 409.865 412.315C395.91 418.095 380.555 419.607 365.741 416.661C350.927 413.714 337.32 406.441 326.64 395.76C315.959 385.08 308.686 371.473 305.739 356.659C302.793 341.845 304.305 326.49 310.085 312.535C315.865 298.581 325.654 286.654 338.212 278.262C350.771 269.871 365.536 265.392 380.64 265.392V265.392C400.811 265.392 420.163 273.372 434.471 287.59C448.779 301.808 456.881 321.109 457.008 341.28V341.76Z" stroke="#263238" stroke-width="4.11736" stroke-miterlimit="10"/>
<path d="M740.48 169.6H468.672C458.757 169.6 450.72 177.637 450.72 187.552V247.888C450.72 257.803 458.757 265.84 468.672 265.84H740.48C750.395 265.84 758.432 257.803 758.432 247.888V187.552C758.432 177.637 750.395 169.6 740.48 169.6Z" fill="white" stroke="#263238" stroke-width="1.02934" stroke-miterlimit="10"/>
<path d="M504.576 217.296H714.288" stroke="#263238" stroke-width="1.02934" stroke-miterlimit="10"/>
<path d="M498.032 217.296L531.152 193.952H615.504L649.92 217.296" stroke="#263238" stroke-width="1.02934" stroke-miterlimit="10"/>
<path d="M656.448 217.296C656.448 218.591 656.064 219.857 655.344 220.933C654.624 222.01 653.601 222.849 652.405 223.343C651.208 223.838 649.891 223.967 648.622 223.713C647.352 223.459 646.186 222.834 645.271 221.918C644.357 221.001 643.735 219.833 643.484 218.563C643.233 217.292 643.365 215.976 643.863 214.781C644.361 213.585 645.202 212.564 646.28 211.847C647.358 211.13 648.625 210.749 649.92 210.752C651.653 210.756 653.313 211.448 654.537 212.674C655.761 213.901 656.448 215.563 656.448 217.296Z" fill="#92E3A9" stroke="#263238" stroke-width="1.02934" stroke-miterlimit="10"/>
<path d="M531.152 200.496C534.766 200.496 537.696 197.566 537.696 193.952C537.696 190.338 534.766 187.408 531.152 187.408C527.538 187.408 524.608 190.338 524.608 193.952C524.608 197.566 527.538 200.496 531.152 200.496Z" fill="#92E3A9" stroke="#263238" stroke-width="1.02934" stroke-miterlimit="10"/>
<path d="M622.032 193.952C622.035 195.248 621.654 196.515 620.936 197.594C620.218 198.672 619.196 199.514 618 200.011C616.803 200.508 615.486 200.639 614.215 200.387C612.944 200.135 611.777 199.511 610.861 198.595C609.945 197.679 609.321 196.512 609.069 195.241C608.817 193.97 608.948 192.653 609.445 191.456C609.943 190.26 610.784 189.238 611.862 188.52C612.941 187.802 614.208 187.421 615.504 187.424C617.234 187.428 618.892 188.117 620.115 189.341C621.339 190.564 622.028 192.222 622.032 193.952V193.952Z" fill="#92E3A9" stroke="#263238" stroke-width="1.02934" stroke-miterlimit="10"/>
<path d="M498.032 217.296L531.152 240.64H686.608L714.288 217.296" stroke="#263238" stroke-width="1.02934" stroke-miterlimit="10"/>
<path d="M588.336 240.64C588.336 241.934 587.952 243.2 587.233 244.276C586.514 245.352 585.492 246.191 584.296 246.686C583.101 247.181 581.785 247.311 580.515 247.058C579.246 246.806 578.08 246.182 577.165 245.267C576.25 244.352 575.626 243.186 575.374 241.917C575.121 240.647 575.251 239.331 575.746 238.136C576.241 236.94 577.08 235.918 578.156 235.199C579.233 234.48 580.498 234.096 581.792 234.096C583.528 234.096 585.192 234.785 586.419 236.013C587.647 237.24 588.336 238.904 588.336 240.64V240.64Z" fill="#92E3A9" stroke="#263238" stroke-width="1.02934" stroke-miterlimit="10"/>
<path d="M537.696 240.64C537.696 241.934 537.312 243.2 536.593 244.276C535.874 245.352 534.852 246.191 533.656 246.686C532.461 247.181 531.145 247.311 529.875 247.058C528.606 246.806 527.44 246.182 526.525 245.267C525.61 244.352 524.986 243.186 524.734 241.917C524.481 240.647 524.611 239.331 525.106 238.136C525.601 236.94 526.44 235.918 527.516 235.199C528.593 234.48 529.858 234.096 531.152 234.096C532.888 234.096 534.552 234.785 535.779 236.013C537.007 237.24 537.696 238.904 537.696 240.64V240.64Z" fill="#92E3A9" stroke="#263238" stroke-width="1.02934" stroke-miterlimit="10"/>
<path d="M693.152 240.64C693.152 241.934 692.768 243.2 692.049 244.276C691.33 245.352 690.308 246.191 689.112 246.686C687.917 247.181 686.601 247.311 685.331 247.058C684.062 246.806 682.896 246.182 681.981 245.267C681.066 244.352 680.442 243.186 680.19 241.917C679.937 240.647 680.067 239.331 680.562 238.136C681.057 236.94 681.896 235.918 682.972 235.199C684.049 234.48 685.314 234.096 686.608 234.096C688.344 234.096 690.008 234.785 691.235 236.013C692.463 237.24 693.152 238.904 693.152 240.64Z" fill="#92E3A9" stroke="#263238" stroke-width="1.02934" stroke-miterlimit="10"/>
<path d="M714.288 223.84C717.902 223.84 720.832 220.91 720.832 217.296C720.832 213.682 717.902 210.752 714.288 210.752C710.674 210.752 707.744 213.682 707.744 217.296C707.744 220.91 710.674 223.84 714.288 223.84Z" fill="#92E3A9" stroke="#263238" stroke-width="1.02934" stroke-miterlimit="10"/>
<path d="M504.576 217.296C504.576 218.591 504.192 219.857 503.472 220.933C502.752 222.01 501.729 222.849 500.533 223.343C499.336 223.838 498.019 223.967 496.749 223.713C495.48 223.459 494.314 222.834 493.399 221.918C492.484 221.001 491.862 219.833 491.612 218.563C491.361 217.292 491.493 215.976 491.991 214.781C492.488 213.585 493.33 212.564 494.408 211.847C495.486 211.13 496.753 210.749 498.048 210.752C499.781 210.756 501.441 211.448 502.665 212.674C503.889 213.901 504.576 215.563 504.576 217.296V217.296Z" fill="#92E3A9" stroke="#263238" stroke-width="1.02934" stroke-miterlimit="10"/>
<path d="M307.312 372.32H150.72C140.805 372.32 132.768 380.357 132.768 390.272V546.864C132.768 556.779 140.805 564.816 150.72 564.816H307.312C317.227 564.816 325.264 556.779 325.264 546.864V390.272C325.264 380.357 317.227 372.32 307.312 372.32Z" fill="white" stroke="#263238" stroke-width="1.02934" stroke-miterlimit="10"/>
<path d="M204.944 482.224L180.016 530.688H293.008" stroke="#263238" stroke-width="1.02934" stroke-linecap="round" stroke-linejoin="round"/>
<path d="M293.008 409.008L240.272 444.064L293.008 459.936" stroke="#263238" stroke-width="1.02934" stroke-linecap="round" stroke-linejoin="round"/>
<path d="M305.472 396.544H280.544V421.472H305.472V396.544Z" fill="#92E3A9" stroke="#263238" stroke-width="1.02934" stroke-miterlimit="10"/>
<path d="M305.472 447.472H280.544V472.4H305.472V447.472Z" fill="#92E3A9" stroke="#263238" stroke-width="1.02934" stroke-miterlimit="10"/>
<path d="M252.736 431.6H227.808V456.528H252.736V431.6Z" fill="#92E3A9" stroke="#263238" stroke-width="1.02934" stroke-miterlimit="10"/>
<path d="M217.408 469.76H192.48V494.688H217.408V469.76Z" fill="#92E3A9" stroke="#263238" stroke-width="1.02934" stroke-miterlimit="10"/>
<path d="M192.48 518.208H167.552V543.136H192.48V518.208Z" fill="#92E3A9" stroke="#263238" stroke-width="1.02934" stroke-miterlimit="10"/>
<path d="M305.472 518.208H280.544V543.136H305.472V518.208Z" fill="#92E3A9" stroke="#263238" stroke-width="1.02934" stroke-miterlimit="10"/>
<path d="M216.032 296.88H59.44C49.5254 296.88 41.488 304.917 41.488 314.832V471.424C41.488 481.339 49.5254 489.376 59.44 489.376H216.032C225.947 489.376 233.984 481.339 233.984 471.424V314.832C233.984 304.917 225.947 296.88 216.032 296.88Z" fill="white" stroke="#263238" stroke-width="1.02934" stroke-miterlimit="10"/>
<path d="M189.904 315.504H61.856V325.424H189.904V315.504Z" fill="#92E3A9"/>
<path d="M135.84 331.84H61.856V341.76H135.84V331.84Z" fill="#92E3A9"/>
<path d="M104.944 348.176H61.856V358.096H104.944V348.176Z" fill="#92E3A9"/>
<path d="M132.768 364.496H61.856V374.416H132.768V364.496Z" fill="#92E3A9"/>
<path d="M172.4 380.832H61.856V390.752H172.4V380.832Z" fill="#92E3A9"/>
<path d="M135.84 397.152H61.856V407.072H135.84V397.152Z" fill="#92E3A9"/>
<path d="M113.472 413.488H61.856V423.408H113.472V413.488Z" fill="#92E3A9"/>
<path d="M145.424 429.824H61.856V439.744H145.424V429.824Z" fill="#92E3A9"/>
<path d="M163.168 446.144H61.856V456.064H163.168V446.144Z" fill="#92E3A9"/>
<path d="M189.904 462.48H61.856V472.4H189.904V462.48Z" fill="#92E3A9"/>
<path opacity="0.3" d="M189.904 315.504H61.856V325.424H189.904V315.504Z" fill="black"/>
<path opacity="0.3" d="M135.84 331.84H61.856V341.76H135.84V331.84Z" fill="black"/>
<path opacity="0.3" d="M104.944 348.176H61.856V358.096H104.944V348.176Z" fill="black"/>
<path opacity="0.3" d="M132.768 364.496H61.856V374.416H132.768V364.496Z" fill="black"/>
<path opacity="0.3" d="M172.4 380.832H61.856V390.752H172.4V380.832Z" fill="black"/>
<path opacity="0.3" d="M135.84 397.152H61.856V407.072H135.84V397.152Z" fill="black"/>
<path opacity="0.3" d="M113.472 413.488H61.856V423.408H113.472V413.488Z" fill="black"/>
<path opacity="0.3" d="M145.424 429.824H61.856V439.744H145.424V429.824Z" fill="black"/>
<path opacity="0.3" d="M163.168 446.144H61.856V456.064H163.168V446.144Z" fill="black"/>
<path opacity="0.3" d="M189.904 462.48H61.856V472.4H189.904V462.48Z" fill="black"/>
<path d="M144.304 280H190.896C193.145 280 195.302 280.893 196.892 282.484C198.483 284.074 199.376 286.231 199.376 288.48V296.912H135.824V288.48C135.824 286.231 136.717 284.074 138.308 282.484C139.898 280.893 142.055 280 144.304 280V280Z" fill="white" stroke="#263238" stroke-width="1.02934" stroke-miterlimit="10"/>
<path d="M112.8 280H158.848C161.173 280 163.404 280.924 165.048 282.568C166.692 284.212 167.616 286.443 167.616 288.768V296.928H104V288.768C104 287.614 104.228 286.471 104.67 285.405C105.113 284.339 105.762 283.371 106.579 282.557C107.397 281.742 108.367 281.097 109.435 280.658C110.502 280.219 111.646 279.996 112.8 280V280Z" fill="#92E3A9" stroke="#263238" stroke-width="1.02934" stroke-miterlimit="10"/>
<path d="M77.392 280H124.56C126.734 279.991 128.823 280.846 130.368 282.376C131.913 283.906 132.787 285.986 132.8 288.16V296.88H69.2V288.16C69.2127 285.994 70.0808 283.921 71.6153 282.393C73.1498 280.864 75.2262 280.004 77.392 280V280Z" fill="white" stroke="#263238" stroke-width="1.02934" stroke-miterlimit="10"/>
<path d="M677.088 632.864H712.08" stroke="#263238" stroke-width="1.02934" stroke-linecap="round" stroke-linejoin="round"/>
<path d="M125.872 632.864H658.672" stroke="#263238" stroke-width="1.02934" stroke-linecap="round" stroke-linejoin="round"/>
<path d="M667.488 612.368C667.488 612.368 673.68 607.296 676.64 612.832C679.184 617.632 673.088 622.992 666.128 622.992V627.04C666.128 627.04 681.04 627.44 682.128 614.88C683.216 602.32 667.424 605.792 667.424 605.792L667.488 612.368Z" fill="#92E3A9" stroke="#263238" stroke-width="1.02934" stroke-linecap="round" stroke-linejoin="round"/>
<path d="M666.976 632.784H637.12L632.64 595.296H671.456L666.976 632.784Z" fill="#92E3A9" stroke="#263238" stroke-width="1.02934" stroke-linecap="round" stroke-linejoin="round"/>
<path d="M671.392 593.504H632.704C631.573 593.504 630.656 594.421 630.656 595.552V595.744C630.656 596.875 631.573 597.792 632.704 597.792H671.392C672.523 597.792 673.44 596.875 673.44 595.744V595.552C673.44 594.421 672.523 593.504 671.392 593.504Z" fill="white" stroke="#263238" stroke-width="1.02934" stroke-linecap="round" stroke-linejoin="round"/>
<path d="M646.976 589.424C646.976 589.424 660.704 581.184 656.224 571.728C651.744 562.272 636.592 556.048 636.592 541.328C636.592 528.656 650.064 523.968 658.864 518.928" stroke="#263238" stroke-width="1.02934" stroke-linecap="round" stroke-linejoin="round"/>
<path d="M651.488 527.872C649.696 529.085 648.161 530.641 646.972 532.449C645.783 534.257 644.963 536.282 644.558 538.408C644.154 540.534 644.174 542.719 644.616 544.837C645.058 546.955 645.915 548.966 647.136 550.752" stroke="#263238" stroke-width="1.02934" stroke-linecap="round" stroke-linejoin="round"/>
<path d="M658.96 565.232C661.711 570.512 662.472 576.605 661.104 582.4" stroke="#263238" stroke-width="1.02934" stroke-linecap="round" stroke-linejoin="round"/>
<path d="M291.2 629.76C291.2 629.76 290.576 619.008 281.088 615.216C271.6 611.424 266.528 612.992 245.36 618.688C232.011 622.18 218.34 624.298 204.56 625.008V629.808L291.2 629.76Z" fill="white" stroke="#263238" stroke-width="1.02934" stroke-linecap="round" stroke-linejoin="round"/>
<path d="M290.896 629.76C290.896 629.76 291.52 619.008 301.008 615.216C310.496 611.424 315.552 612.992 336.736 618.688C350.105 622.187 363.798 624.304 377.6 625.008V629.808L290.896 629.76Z" fill="white" stroke="#263238" stroke-width="1.02934" stroke-linecap="round" stroke-linejoin="round"/>
<path d="M381.04 627.856H202.384V631.328H381.04V627.856Z" fill="#263238" stroke="#263238" stroke-width="1.02934" stroke-linecap="round" stroke-linejoin="round"/>
<path d="M295.504 629.568C296.355 627.032 297.73 624.703 299.542 622.735C301.353 620.766 303.559 619.202 306.016 618.144" stroke="#263238" stroke-width="1.02934" stroke-linecap="round" stroke-linejoin="round"/>
<path d="M300.912 628.8C302.175 626.624 303.889 624.744 305.94 623.287C307.991 621.829 310.33 620.829 312.8 620.352C318.704 619.264 324.72 621.296 330.288 623.552C335.856 625.808 345.6 628.8 351.552 628.8" stroke="#263238" stroke-width="1.02934" stroke-linecap="round" stroke-linejoin="round"/>
<path d="M239.04 627.824C244.956 627.185 250.755 625.731 256.272 623.504C259.596 621.944 263.029 620.628 266.544 619.568C270.1 618.52 273.924 618.905 277.2 620.64C278.609 621.556 279.848 622.709 280.864 624.048C282.276 625.832 283.443 627.796 284.336 629.888" stroke="#263238" stroke-width="1.02934" stroke-linecap="round" stroke-linejoin="round"/>
<path d="M271.712 622.992C273.659 623.245 275.458 624.167 276.8 625.6C278.099 627.036 279.231 628.614 280.176 630.304" stroke="#263238" stroke-width="1.02934" stroke-linecap="round" stroke-linejoin="round"/>
<path d="M426.56 628.032C420.024 631.028 412.947 632.661 405.76 632.832C394.688 632.832 372.16 609.952 372.16 609.952C372.16 609.952 371.344 607.488 373.104 598.272C374.864 589.056 391.408 504.496 391.408 504.496C391.408 504.496 393.36 484.816 404.544 472.736C415.728 460.656 437.68 456.352 437.68 456.352C437.68 456.352 486.224 435.216 513.456 441.744C540.656 452.544 570.368 463.52 580.288 472.032C590.208 480.544 614.592 548.832 623.04 583.904C623.04 583.904 604.432 623.44 587.072 634.544C569.712 645.648 527.872 642.032 527.872 642.032L426.56 628.032Z" fill="#92E3A9"/>
<path opacity="0.3" d="M420.4 559.312L413.376 466.112C408.778 467.974 404.703 470.927 401.5 474.715C398.297 478.503 396.064 483.013 394.992 487.856C391.36 504.528 369.392 607.136 372.112 609.984C374.832 612.832 389.152 625.104 389.152 625.104C389.152 625.104 404.592 638.304 420.4 630.416C436.208 622.528 420.4 559.312 420.4 559.312Z" fill="black"/>
<path opacity="0.3" d="M490.096 474.752C489.28 477.536 485.776 478.432 482.864 478.464C474.496 478.555 466.38 475.597 460.032 470.144C458.88 469.136 438.288 481.856 435.92 483.12C432.176 485.136 428.512 487.344 424.72 489.216C421.168 490.96 417.808 491.824 415.488 495.344C413.95 497.939 412.792 500.741 412.048 503.664C407.056 520.016 401.792 536.32 397.248 552.784C393.312 567.04 388.016 582.816 388.24 597.776C388.242 598.847 388.317 599.916 388.464 600.976C391.664 620.096 426.576 628.032 426.576 628.032C426.576 628.032 414.224 635.6 405.776 632.832C397.328 630.064 377.584 618.768 371.36 608.208L388.496 518.608C388.496 518.608 388.288 475.408 419.424 462.608C450.56 449.808 462.784 447.84 462.784 447.84L490.096 474.752Z" fill="black"/>
<path opacity="0.3" d="M604.992 615.696C604.992 615.696 618.592 600.672 622.992 583.936C622.992 583.936 602.192 515.232 596.784 502.336C591.376 489.44 582.624 474.8 576.496 468.528L566.544 609.936L564.448 639.696C564.448 639.696 575.648 640.16 583.408 636.496C591.168 632.832 604.992 615.696 604.992 615.696Z" fill="black"/>
<path d="M564.448 639.744L576.496 468.544C576.496 468.544 518.16 441.344 502.896 438.752C487.632 436.16 413.504 465.376 413.504 465.376L424.288 629.568" stroke="#263238" stroke-width="1.02934" stroke-linecap="round" stroke-linejoin="round"/>
<path d="M459.296 355.2L453.312 383.92C453.312 383.92 445.632 378.496 444 384.624C442.368 390.752 447.36 399.184 457.008 399.648C457.008 399.648 459.632 412.656 468.208 421.488C472.245 425.796 476.518 429.877 481.008 433.712C481.008 433.712 484.384 455.52 495.408 456.352C506.432 457.184 508.576 447.264 510.8 433.472C510.8 433.472 520.32 416.96 523.104 408.032C523.104 408.032 534.784 399.888 526.992 388C526.992 388 530.848 359.568 524.144 354.768C517.44 349.968 470.992 352.416 459.296 355.2Z" fill="white"/>
<path d="M494.864 458.624C494.864 458.624 491.168 477.248 488.864 477.712C486.56 478.176 477.44 469.472 469.472 458.624C461.504 447.776 462.736 447.76 462.736 447.76C462.736 447.76 466.432 433.52 469.472 431.44C472.512 429.36 483.472 429.616 483.472 429.616L507.472 428.704C507.472 428.704 515.472 427.568 520.416 430.752C525.36 433.936 527.76 447.76 527.76 447.76C527.76 447.76 513.36 474.304 501.616 477.712C498.998 471.485 496.743 465.112 494.864 458.624V458.624Z" fill="white"/>
<path d="M416.192 598.464L419.376 553.792" stroke="#263238" stroke-width="1.02934" stroke-miterlimit="10"/>
<path d="M527.76 363.424C527.76 363.424 514.128 368.704 502.08 367.696C502.08 367.696 489.36 380.496 473.072 372.896C473.072 372.896 458.384 412.672 492.064 438.688C483.545 435.42 475.924 430.175 469.829 423.385C463.735 416.594 459.34 408.453 457.008 399.632C457.008 399.632 447.408 401.12 444 386.832C444 386.832 441.232 381.312 453.856 381.28L453.312 353.6L485.744 360.112L509.024 356.704L527.76 363.424Z" fill="#92E3A9"/>
<path opacity="0.4" d="M527.76 363.424C527.76 363.424 514.128 368.704 502.08 367.696C502.08 367.696 489.36 380.496 473.072 372.896C473.072 372.896 461.2 415.488 490.672 437.968C490.672 437.968 463.936 428.704 456.992 399.568C456.992 399.568 447.488 398.56 443.984 386.768C443.984 386.768 441.216 381.248 453.84 381.216L453.296 353.536L485.728 360.048L509.008 356.64L527.76 363.424Z" fill="white"/>
<path d="M490.688 418.56C491.745 419.414 492.85 420.204 494 420.928C494.752 421.408 495.888 421.792 496.416 421.088C496.597 420.801 496.691 420.467 496.688 420.128C497.168 412.272 495.328 404.336 496.448 396.544" stroke="#263238" stroke-width="1.02934" stroke-linecap="round" stroke-linejoin="round"/>
<path d="M501.616 392.08C501.616 392.08 505.52 383.472 515.584 391.2" stroke="#263238" stroke-width="2.05868" stroke-linecap="round" stroke-linejoin="round"/>
<path d="M488.96 393.6C488.96 393.6 481.6 384.448 472.48 393.888" stroke="#263238" stroke-width="2.05868" stroke-linecap="round" stroke-linejoin="round"/>
<path d="M479.024 432.336C479.024 432.336 482.944 455.808 496.768 456.528C507.968 457.104 510.176 437.696 510.608 430.752" stroke="#263238" stroke-width="1.02934" stroke-linecap="round" stroke-linejoin="round"/>
<path d="M455.2 386.528C455.2 386.528 449.104 379.248 444.976 382.8C440.848 386.352 447.04 402 457.008 399.632" stroke="#263238" stroke-width="1.02934" stroke-linecap="round" stroke-linejoin="round"/>
<path d="M481.6 421.472C484.608 425.099 488.722 427.639 493.312 428.704" stroke="#263238" stroke-width="1.02934" stroke-linecap="round" stroke-linejoin="round"/>
<path d="M480.928 407.856C481.803 407.856 482.512 406.352 482.512 404.496C482.512 402.64 481.803 401.136 480.928 401.136C480.053 401.136 479.344 402.64 479.344 404.496C479.344 406.352 480.053 407.856 480.928 407.856Z" fill="#263238"/>
<path d="M508.192 404.496C508.192 406.352 507.472 407.856 506.592 407.856C505.712 407.856 504.992 406.352 504.992 404.496C504.992 402.64 505.696 401.12 506.592 401.12C507.488 401.12 508.192 402.64 508.192 404.496Z" fill="#263238"/>
<path d="M495.312 456.336C495.312 456.336 491.472 477.248 488.912 477.712C486.352 478.176 466.656 460.32 462.784 447.76C462.784 447.76 466.944 431.344 470.784 430.752C472.592 430.464 474.672 430.192 476.32 429.984" stroke="#263238" stroke-width="1.02934" stroke-linecap="round" stroke-linejoin="round"/>
<path d="M495.312 456.336C495.312 456.336 499.024 477.248 501.616 477.712C504.208 478.176 523.888 460.32 527.76 447.76C527.76 447.76 523.056 431.456 519.488 430.08C517.211 429.226 514.867 428.563 512.48 428.096" stroke="#263238" stroke-width="1.02934" stroke-linecap="round" stroke-linejoin="round"/>
<path d="M458.896 404.896C461.424 409.28 464.56 393.84 463.232 388.896C462.336 385.696 460.592 382.592 460.432 379.296C460.272 375.552 462.032 372.048 463.408 368.544C464.784 365.04 465.504 360.864 463.408 357.728C470.674 362.867 479.204 365.926 488.08 366.576C490.343 366.895 492.649 366.709 494.832 366.032C495.914 365.676 496.885 365.048 497.653 364.207C498.421 363.366 498.959 362.341 499.216 361.232C507.536 362.288 515.776 363.376 524.064 362.24C531.024 361.296 541.84 359.536 545.408 352.432C550.64 342.064 537.168 331.296 529.216 327.664C510.016 318.88 484.064 317.392 466.72 331.184C464.94 332.727 463.076 334.169 461.136 335.504C457.312 337.904 448.608 339.76 445.552 343.104C441.456 347.6 446.592 382.32 446.592 382.32C446.592 382.32 453.28 379.216 456.032 389.568C457.952 396.544 456.336 400.48 458.896 404.896Z" fill="#263238"/>
<path d="M521.808 360C521.696 360.43 521.621 360.869 521.584 361.312C521.405 365.25 521.876 369.191 522.976 372.976C523.408 374.672 524.032 376.32 524.304 378.048C524.944 382.16 524.944 386.128 527.984 389.472C527.984 389.472 533.808 369.104 531.456 354.544C531.184 352.944 530.656 348.624 528.08 349.408C526.192 349.984 524.88 353.216 524.048 354.784C523.12 356.439 522.369 358.187 521.808 360V360Z" fill="#263238"/>
<path d="M441.424 340.8C443.999 339.012 446.963 337.862 450.071 337.444C453.178 337.027 456.34 337.355 459.296 338.4C463.945 330.12 470.418 323.007 478.224 317.6" stroke="#263238" stroke-width="1.02934" stroke-linecap="round" stroke-linejoin="round"/>
<path opacity="0.47" d="M466.448 335.904C466.448 335.904 497.808 358.208 516.8 352.688C535.792 347.168 530.48 330.832 530.48 330.832" stroke="white" stroke-width="1.02934" stroke-linecap="round" stroke-linejoin="round"/>
<path opacity="0.47" d="M469.472 332.16C469.472 332.16 508.848 350.256 515.472 324.64" stroke="white" stroke-width="1.02934" stroke-linecap="round" stroke-linejoin="round"/>
<path d="M479.024 432.336C479.024 432.336 486.512 446.88 492.384 446.64C498.256 446.4 509.024 430.752 509.024 430.752C509.024 430.752 503.216 438.24 494.4 439.008C488.592 439.52 479.024 432.336 479.024 432.336Z" fill="#263238"/>
<path d="M524.336 538.528L525.552 537.968C526.233 537.667 526.792 537.144 527.138 536.484C527.483 535.825 527.596 535.067 527.456 534.336L527.216 532.864C527.098 532.131 526.735 531.459 526.185 530.959C525.636 530.459 524.933 530.161 524.192 530.112L522.72 529.984C522.139 529.943 521.579 529.748 521.098 529.419C520.617 529.09 520.233 528.639 519.984 528.112C519.584 527.28 519.168 526.512 518.704 525.68C518.413 525.179 518.26 524.611 518.26 524.032C518.26 523.453 518.413 522.885 518.704 522.384L519.456 521.104C519.825 520.459 519.972 519.712 519.877 518.975C519.782 518.239 519.448 517.554 518.928 517.024L517.872 515.984C517.358 515.435 516.668 515.085 515.922 514.994C515.176 514.904 514.422 515.078 513.792 515.488L512.496 516.256C511.995 516.547 511.427 516.7 510.848 516.7C510.269 516.7 509.7 516.547 509.2 516.256C507.1 515.043 504.845 514.122 502.496 513.52C501.922 513.37 501.399 513.068 500.982 512.646C500.565 512.223 500.27 511.696 500.128 511.12L499.744 509.52C499.585 508.775 499.166 508.112 498.562 507.649C497.958 507.185 497.208 506.952 496.448 506.992H494.976C494.218 506.952 493.47 507.182 492.866 507.642C492.263 508.103 491.842 508.762 491.68 509.504L491.264 511.104C491.13 511.673 490.843 512.194 490.435 512.612C490.026 513.029 489.51 513.327 488.944 513.472C488.112 513.712 487.344 513.952 486.512 514.256C485.96 514.454 485.366 514.502 484.79 514.395C484.214 514.288 483.676 514.03 483.232 513.648L481.904 512.512C481.361 512.011 480.661 511.713 479.923 511.669C479.185 511.625 478.455 511.838 477.856 512.272L476.688 513.072C476.044 513.479 475.566 514.102 475.34 514.829C475.115 515.556 475.156 516.34 475.456 517.04L476.048 518.64C476.262 519.186 476.327 519.778 476.237 520.357C476.147 520.936 475.905 521.481 475.536 521.936C475.005 522.564 474.508 523.221 474.048 523.904C473.713 524.393 473.252 524.782 472.714 525.03C472.176 525.278 471.581 525.375 470.992 525.312L469.392 525.168C468.648 525.068 467.893 525.233 467.258 525.634C466.623 526.034 466.15 526.645 465.92 527.36L465.392 528.8C465.136 529.485 465.115 530.235 465.332 530.933C465.549 531.631 465.993 532.237 466.592 532.656L468.192 533.728C468.665 534.068 469.041 534.527 469.282 535.057C469.523 535.587 469.622 536.172 469.568 536.752C469.469 537.607 469.426 538.467 469.44 539.328C469.425 539.891 469.271 540.441 468.992 540.929C468.713 541.418 468.317 541.83 467.84 542.128L466.24 542.992C465.583 543.349 465.066 543.919 464.775 544.608C464.485 545.297 464.437 546.064 464.64 546.784L465.024 548.224C465.21 548.949 465.638 549.589 466.237 550.037C466.837 550.485 467.572 550.715 468.32 550.688H469.92C470.498 550.682 471.067 550.826 471.572 551.107C472.077 551.387 472.5 551.794 472.8 552.288C473.248 553.088 473.712 553.888 474.224 554.576C474.553 555.054 474.75 555.611 474.795 556.19C474.84 556.768 474.731 557.349 474.48 557.872L473.808 559.28C473.476 559.948 473.381 560.71 473.538 561.439C473.695 562.169 474.095 562.823 474.672 563.296L475.808 564.256C476.374 564.739 477.087 565.016 477.831 565.042C478.575 565.068 479.305 564.842 479.904 564.4L481.088 563.568C481.547 563.24 482.085 563.039 482.647 562.985C483.209 562.932 483.775 563.028 484.288 563.264C485.136 563.664 485.984 564.016 486.864 564.352C487.405 564.552 487.883 564.891 488.251 565.335C488.619 565.779 488.864 566.312 488.96 566.88L489.2 568.32C489.324 569.054 489.691 569.724 490.243 570.223C490.794 570.722 491.498 571.021 492.24 571.072L493.744 571.2C494.482 571.271 495.222 571.09 495.844 570.686C496.466 570.282 496.933 569.679 497.168 568.976L497.632 567.696C497.828 567.141 498.169 566.648 498.619 566.269C499.069 565.889 499.612 565.636 500.192 565.536C501.124 565.386 502.048 565.189 502.96 564.944C503.522 564.794 504.114 564.795 504.676 564.947C505.238 565.099 505.75 565.396 506.16 565.808L507.136 566.8C507.65 567.329 508.327 567.67 509.058 567.768C509.789 567.867 510.532 567.718 511.168 567.344L512.48 566.608C513.141 566.251 513.659 565.678 513.95 564.986C514.241 564.293 514.287 563.522 514.08 562.8L513.712 561.52C513.54 560.947 513.526 560.338 513.673 559.757C513.819 559.177 514.12 558.647 514.544 558.224C515.232 557.55 515.883 556.839 516.496 556.096C516.878 555.637 517.377 555.29 517.941 555.093C518.505 554.896 519.111 554.855 519.696 554.976L521.024 555.232C521.754 555.373 522.509 555.263 523.169 554.92C523.828 554.578 524.352 554.022 524.656 553.344L525.28 552C525.608 551.325 525.694 550.559 525.526 549.828C525.357 549.097 524.943 548.446 524.352 547.984L523.36 547.168C522.9 546.816 522.543 546.346 522.329 545.808C522.115 545.27 522.051 544.684 522.144 544.112C522.301 543.132 522.402 542.144 522.448 541.152C522.511 540.589 522.718 540.052 523.048 539.593C523.379 539.133 523.822 538.766 524.336 538.528V538.528ZM504.512 539.376C504.515 541.098 504.007 542.783 503.053 544.216C502.098 545.65 500.74 546.768 499.15 547.429C497.56 548.09 495.809 548.265 494.12 547.931C492.43 547.597 490.878 546.769 489.659 545.552C488.44 544.336 487.61 542.785 487.272 541.096C486.935 539.407 487.107 537.656 487.765 536.065C488.423 534.473 489.539 533.113 490.971 532.156C492.402 531.199 494.086 530.688 495.808 530.688V530.688C498.105 530.684 500.31 531.591 501.939 533.211C503.568 534.831 504.488 537.031 504.496 539.328L504.512 539.376Z" fill="#263238"/>
<path d="M416.528 592.448C415.222 593.887 413.792 595.21 412.256 596.4C408.091 600.435 404.967 605.42 403.152 610.928C402.255 613.475 402.255 616.253 403.152 618.8C405.088 623.6 411.232 628.4 416.144 625.328" stroke="#263238" stroke-width="1.02934" stroke-linecap="round" stroke-linejoin="round"/>
<path d="M416.144 584C411.456 583.264 406.848 585.984 403.648 589.456C400.448 592.928 398.224 597.216 395.312 600.944" stroke="#263238" stroke-width="1.02934" stroke-linecap="round" stroke-linejoin="round"/>
<path d="M415.776 632.112C409.536 633.325 403.074 632.634 397.232 630.128C393.531 628.138 390.082 625.709 386.96 622.896L374.8 612.848C372.848 611.248 370.688 608.928 371.488 606.528C371.488 606.528 391.808 499.44 394.992 487.856C398.688 474.496 413.568 465.456 413.568 465.456" stroke="#263238" stroke-width="1.02934" stroke-linecap="round" stroke-linejoin="round"/>
<path d="M568.24 593.6C573.473 597.534 577.474 602.879 579.776 609.008C581.596 614.694 582.814 620.555 583.408 626.496C580.208 628.256 573.808 632.896 568.24 632.896" stroke="#263238" stroke-width="1.02934" stroke-linecap="round" stroke-linejoin="round"/>
<path d="M568.928 584.688C573.856 583.376 578.736 586.736 582.464 590.224C586.192 593.712 590.016 597.76 595.088 598.304" stroke="#263238" stroke-width="1.02934" stroke-linecap="round" stroke-linejoin="round"/>
<path d="M569.872 640.336C579.472 639.328 588.112 634.096 595.024 627.424C601.936 620.752 607.248 612.656 612.512 604.64C616.784 598.144 621.12 591.472 622.992 583.936C622.992 583.936 606.144 528.24 596.784 502.336C587.024 475.408 576.496 468.528 576.496 468.528" stroke="#263238" stroke-width="1.02934" stroke-linecap="round" stroke-linejoin="round"/>
<path d="M568.928 584.688C577.616 577.392 590.944 583.296 600.288 588.192" stroke="#263238" stroke-width="1.02934" stroke-linecap="round" stroke-linejoin="round"/>
<path d="M568.224 554.88H416.528V642.064H568.224V554.88Z" fill="white"/>
<path d="M568.928 642.064H415.776V646.624H568.928V642.064Z" fill="#263238"/>
<path d="M415.776 642.064L568.24 554.88L568.928 642.064H415.776Z" fill="#263238"/>
<path opacity="0.9" d="M415.776 642.064L568.24 554.88L568.928 642.064H415.776Z" fill="white"/>
<path d="M503.564 606.188C508.613 601.139 508.613 592.953 503.564 587.905C498.515 582.856 490.33 582.856 485.281 587.905C480.232 592.953 480.232 601.139 485.281 606.188C490.33 611.236 498.515 611.236 503.564 606.188Z" fill="#263238"/>
<path d="M568.224 554.88H416.528V642.064H568.224V554.88Z" stroke="#263238" stroke-width="1.02934" stroke-linecap="round" stroke-linejoin="round"/>
<path d="M454.496 377.696C454.496 377.696 457.824 408.096 462.048 413.584C466.272 419.072 479.84 438.928 494.624 438.624C509.408 438.32 519.056 419.312 521.472 411.168C524.479 400.854 526.299 390.231 526.896 379.504" stroke="#263238" stroke-width="1.02934" stroke-linecap="round" stroke-linejoin="round"/>
<path d="M523.008 408C523.008 408 533.968 402.336 526.896 387.968" stroke="#263238" stroke-width="1.02934" stroke-linecap="round" stroke-linejoin="round"/>
</svg>
