<svg width="250" height="250" viewBox="0 0 250 250" fill="none" xmlns="http://www.w3.org/2000/svg">
    <path d="M230.645 143C235.176 128.202 237.583 112.835 237.795 97.36C238.045 81.43 236.295 64.205 225.795 52.265C215.485 40.59 198.94 36.6 183.375 35.92C177.07 35.65 170.63 35.83 164.645 37.83C152.56 41.87 144.09 52.585 133.37 59.475C112.675 72.775 84.715 71.2 64.82 85.67C59.7269 89.4391 55.2934 94.0263 51.7 99.245C37.2 120.02 36.065 148.8 47.135 171.59C58.205 194.38 80.44 210.92 105.045 217C129.65 223.08 156.2 219.065 179 208C205.565 195.105 222.11 170.42 230.645 143Z"
          fill="#92E3A9"/>
    <path opacity="0.7"
          d="M230.645 143C235.176 128.202 237.583 112.835 237.795 97.36C238.045 81.43 236.295 64.205 225.795 52.265C215.485 40.59 198.94 36.6 183.375 35.92C177.07 35.65 170.63 35.83 164.645 37.83C152.56 41.87 144.09 52.585 133.37 59.475C112.675 72.775 84.715 71.2 64.82 85.67C59.7269 89.4391 55.2934 94.0263 51.7 99.245C37.2 120.02 36.065 148.8 47.135 171.59C58.205 194.38 80.44 210.92 105.045 217C129.65 223.08 156.2 219.065 179 208C205.565 195.105 222.11 170.42 230.645 143Z"
          fill="white"/>
    <path d="M193.94 47.155V151.385C193.941 152.123 193.796 152.853 193.514 153.535C193.232 154.216 192.818 154.835 192.297 155.357C191.775 155.878 191.156 156.292 190.475 156.574C189.793 156.856 189.062 157.001 188.325 157H49.325C48.5866 157.003 47.8547 156.859 47.1716 156.578C46.4887 156.297 45.8678 155.884 45.3453 155.362C44.8225 154.84 44.4081 154.22 44.1256 153.538C43.8434 152.855 43.6987 152.123 43.7 151.385V47.155C43.6994 46.4178 43.8441 45.6878 44.1256 45.0066C44.4072 44.3253 44.8203 43.7063 45.3412 43.185C45.8625 42.6635 46.4809 42.2497 47.1619 41.9675C47.8428 41.6853 48.5728 41.54 49.31 41.54H188.31C189.049 41.5375 189.781 41.6806 190.464 41.9619C191.147 42.2428 191.768 42.656 192.292 43.1778C192.815 43.6997 193.23 44.3194 193.512 45.0019C193.795 45.6844 193.941 46.4163 193.94 47.155Z"
          fill="white"/>
    <path d="M193.94 50.375V151.375C193.942 152.113 193.798 152.845 193.517 153.527C193.235 154.21 192.822 154.831 192.3 155.353C191.779 155.876 191.159 156.29 190.477 156.573C189.795 156.856 189.063 157.001 188.325 157H49.325C48.7972 157.001 48.2719 156.927 47.765 156.78L193.94 50.375Z"
          fill="#263238"/>
    <path opacity="0.9"
          d="M193.94 50.375V151.375C193.942 152.113 193.798 152.845 193.517 153.527C193.235 154.21 192.822 154.831 192.3 155.353C191.779 155.876 191.159 156.29 190.477 156.573C189.795 156.856 189.063 157.001 188.325 157H49.325C48.7972 157.001 48.2719 156.927 47.765 156.78L193.94 50.375Z"
          fill="white"/>
    <path d="M155.405 106.8L163 103.38L161.38 94.325L153 93.655C151.95 90.8588 150.54 88.2112 148.805 85.78L151.425 81.345L153.1 78.5L146.6 72.05L139.325 76.42C135.147 73.5366 130.401 71.5797 125.405 70.68L123.31 62.34H114.13L112 70.74C109.162 71.3112 106.398 72.2 103.76 73.39L97.165 67.71L89.64 72.835L92.77 80.96C90.7797 83.0219 89.0578 85.3266 87.645 87.82L78.985 86.945L75.87 95.59L83 100.455C82.6534 102.485 82.4862 104.541 82.5 106.6C82.44 107.447 82.44 108.298 82.5 109.145L74.93 113.395L77.33 122.25H85.88C86.6997 124.013 87.6594 125.706 88.75 127.315C89.31 128.138 89.9015 128.94 90.525 129.72L86.835 137.345L93.9 143.27L100.715 138.165C103.306 139.663 106.074 140.83 108.955 141.64L110.32 149.88L119.5 150.695L122.25 142.925C125.248 142.627 128.201 141.981 131.05 141L136.875 146.82L144.85 142.22L142.655 134.28C144.972 132.337 147.036 130.11 148.795 127.65L156.875 129.1L160.765 120.77L154.415 115.65C155.103 112.751 155.436 109.779 155.405 106.8ZM134.43 106.8C134.43 110.408 133.179 113.905 130.891 116.695C128.603 119.484 125.419 121.395 121.88 122.102C118.342 122.808 114.668 122.267 111.484 120.569C108.3 118.872 105.803 116.124 104.417 112.792C103.031 109.461 102.842 105.752 103.883 102.297C104.924 98.8425 107.13 95.8553 110.125 93.8437C113.121 91.8322 116.721 90.9209 120.312 91.2647C123.904 91.6087 127.266 93.1866 129.825 95.73C130.105 96.01 130.38 96.3 130.63 96.605C133.064 99.4066 134.413 102.988 134.43 106.7V106.8Z"
          fill="#92E3A9" stroke="#263238" stroke-width="0.772005" stroke-miterlimit="10"/>
    <path opacity="0.2"
          d="M154.415 115.625L160.765 120.745L156.875 129.075L148.795 127.625C147.036 130.085 144.972 132.312 142.655 134.255L144.85 142.195L136.875 146.795L131.05 141C128.199 141.99 125.242 142.644 122.24 142.95L119.5 150.695L110.325 149.88L108.96 141.64C106.079 140.83 103.311 139.662 100.72 138.165L93.905 143.27L86.84 137.345L90.5 129.72C89.8766 128.94 89.285 128.138 88.725 127.315L105.535 115C107.322 117.888 110.001 120.115 113.167 121.344C116.333 122.572 119.813 122.735 123.08 121.807C126.347 120.879 129.223 118.912 131.271 116.203C133.319 113.494 134.428 110.191 134.43 106.795V106.695C134.413 102.983 133.064 99.4016 130.63 96.6L151.445 81.34L148.825 85.775C150.553 88.2091 151.957 90.8581 153 93.655L161.34 94.325L163 103.38L155.425 106.8C155.447 109.772 155.108 112.735 154.415 115.625Z"
          fill="black"/>
    <path d="M186.96 82.73L187.34 82.555C187.553 82.4619 187.728 82.2997 187.837 82.0944C187.946 81.8894 187.982 81.6534 187.94 81.425L187.86 80.96C187.822 80.7313 187.708 80.5219 187.537 80.3656C187.366 80.2097 187.146 80.1159 186.915 80.1L186.455 80.065C186.276 80.0531 186.103 79.9947 185.953 79.8956C185.803 79.7966 185.681 79.6603 185.6 79.5C185.475 79.235 185.345 79 185.2 78.735C185.109 78.5788 185.061 78.4009 185.061 78.22C185.061 78.0391 185.109 77.8616 185.2 77.705L185.435 77.305C185.552 77.1047 185.598 76.8716 185.568 76.6419C185.539 76.4122 185.434 76.1988 185.27 76.035L184.94 75.705C184.779 75.5334 184.564 75.4241 184.331 75.3956C184.097 75.3675 183.862 75.4219 183.665 75.55L183.26 75.79C183.103 75.8809 182.926 75.9288 182.745 75.9288C182.564 75.9288 182.387 75.8809 182.23 75.79C181.574 75.4125 180.869 75.1266 180.135 74.94C179.955 74.8928 179.791 74.7975 179.661 74.6647C179.53 74.5319 179.439 74.3659 179.395 74.185L179.275 73.685C179.222 73.4538 179.09 73.2481 178.902 73.1031C178.714 72.9581 178.482 72.8828 178.245 72.89H177.785C177.548 72.8825 177.317 72.9572 177.129 73.1013C176.941 73.2453 176.809 73.4497 176.755 73.68L176.625 74.18C176.58 74.3569 176.489 74.5188 176.362 74.6497C176.235 74.7803 176.076 74.8753 175.9 74.925C175.64 74.995 175.4 75.075 175.145 75.165C174.972 75.2284 174.785 75.2441 174.604 75.2106C174.423 75.1772 174.254 75.0959 174.115 74.975L173.7 74.62C173.527 74.4691 173.309 74.3803 173.079 74.3675C172.85 74.3547 172.623 74.4191 172.435 74.55L172.07 74.795C171.874 74.9269 171.729 75.1216 171.659 75.3472C171.589 75.5728 171.598 75.8153 171.685 76.035L171.87 76.535C171.936 76.7056 171.957 76.8906 171.928 77.0716C171.9 77.2525 171.825 77.4225 171.71 77.565C171.545 77.76 171.39 77.965 171.245 78.175C171.143 78.3306 171 78.455 170.831 78.5334C170.662 78.6122 170.475 78.6422 170.29 78.62L169.79 78.57C169.558 78.5447 169.325 78.5984 169.128 78.7228C168.931 78.8472 168.782 79.035 168.705 79.255L168.54 79.71C168.46 79.9241 168.453 80.1584 168.521 80.3766C168.589 80.5947 168.728 80.7841 168.915 80.915L169.39 81.25C169.538 81.355 169.656 81.4972 169.732 81.6622C169.807 81.8272 169.838 82.0094 169.82 82.19C169.792 82.4591 169.778 82.7294 169.78 83C169.774 83.1756 169.726 83.3472 169.639 83.4997C169.552 83.6522 169.428 83.7813 169.28 83.875L168.78 84.14C168.573 84.2516 168.411 84.4306 168.321 84.6469C168.23 84.8634 168.215 85.1044 168.28 85.33L168.4 85.78C168.459 86.0063 168.593 86.2056 168.78 86.3456C168.967 86.4853 169.197 86.5575 169.43 86.55H169.93C170.111 86.5472 170.289 86.5919 170.447 86.6794C170.605 86.7672 170.737 86.895 170.83 87.05C170.97 87.295 171.12 87.55 171.275 87.765C171.378 87.9144 171.439 88.0884 171.453 88.2694C171.468 88.45 171.433 88.6316 171.355 88.795L171.145 89.23C171.041 89.4388 171.012 89.6769 171.061 89.9047C171.11 90.1328 171.235 90.3372 171.415 90.485L171.77 90.785C171.947 90.9372 172.171 91.0244 172.405 91.0325C172.638 91.0409 172.868 90.9694 173.055 90.83L173.42 90.575C173.567 90.4691 173.741 90.4038 173.922 90.3863C174.103 90.3688 174.285 90.3994 174.45 90.475C174.71 90.6 174.975 90.715 175.25 90.815C175.42 90.8778 175.57 90.9847 175.685 91.1244C175.8 91.2638 175.876 91.4316 175.905 91.61L175.98 92.055C176.017 92.285 176.131 92.4953 176.304 92.6519C176.477 92.8081 176.698 92.9009 176.93 92.915L177.4 92.96C177.63 92.9803 177.861 92.9228 178.055 92.7969C178.249 92.671 178.395 92.4838 178.47 92.265L178.615 91.86C178.677 91.6869 178.783 91.5331 178.924 91.4144C179.064 91.2959 179.234 91.2169 179.415 91.185C179.707 91.1406 179.996 91.0788 180.28 91C180.456 90.95 180.642 90.9494 180.818 90.9978C180.995 91.0463 181.154 91.1422 181.28 91.275L181.585 91.585C181.746 91.7503 181.957 91.8569 182.186 91.8875C182.414 91.9185 182.646 91.8719 182.845 91.755L183.255 91.52C183.46 91.4085 183.622 91.2306 183.713 91.015C183.803 90.7997 183.818 90.56 183.755 90.335L183.64 89.93C183.586 89.7509 183.582 89.5603 183.628 89.3791C183.673 89.1978 183.768 89.0322 183.9 88.9C184.115 88.691 184.318 88.4706 184.51 88.24C184.627 88.0938 184.783 87.9834 184.96 87.9216C185.137 87.8597 185.327 87.8488 185.51 87.89L185.92 87.965C186.148 88.015 186.386 87.9841 186.593 87.8772C186.8 87.7703 186.964 87.5947 187.055 87.38L187.25 86.955C187.353 86.7441 187.379 86.5047 187.327 86.2763C187.274 86.0478 187.145 85.8444 186.96 85.7L186.65 85.45C186.508 85.3375 186.398 85.1897 186.331 85.0209C186.264 84.8525 186.243 84.6694 186.27 84.49C186.319 84.1838 186.351 83.875 186.365 83.565C186.383 83.3859 186.447 83.2147 186.551 83.0681C186.656 82.9216 186.797 82.805 186.96 82.73ZM183.265 83C183.265 84.0325 182.959 85.0416 182.385 85.9C181.812 86.7584 180.997 87.4275 180.043 87.8228C179.089 88.2178 178.039 88.3213 177.027 88.1197C176.014 87.9184 175.084 87.4213 174.354 86.6913C173.624 85.9609 173.127 85.031 172.925 84.0185C172.724 83.006 172.827 81.9563 173.223 81.0025C173.618 80.0484 174.287 79.2334 175.145 78.6597C176.003 78.0863 177.013 77.78 178.045 77.78C179.423 77.7788 180.745 78.3238 181.722 79.2956C182.698 80.2675 183.25 81.5872 183.255 82.965L183.265 83Z"
          fill="#92E3A9" stroke="#263238" stroke-width="0.772005" stroke-miterlimit="10"/>
    <path d="M193.94 47.155V47.44H43.7V47.155C43.6994 46.4178 43.8441 45.6878 44.1256 45.0066C44.4072 44.3253 44.8203 43.7063 45.3413 43.185C45.8625 42.6635 46.481 42.2497 47.1619 41.9675C47.8428 41.6853 48.5728 41.54 49.31 41.54H188.31C189.049 41.5375 189.781 41.6806 190.464 41.9619C191.148 42.2428 191.768 42.656 192.292 43.1778C192.815 43.6997 193.23 44.3194 193.513 45.0019C193.795 45.6844 193.941 46.4163 193.94 47.155Z"
          fill="#263238"/>
    <path d="M193.94 47.155V151.385C193.941 152.123 193.796 152.853 193.514 153.535C193.232 154.216 192.818 154.835 192.297 155.357C191.775 155.878 191.156 156.292 190.475 156.574C189.793 156.856 189.063 157.001 188.325 157H49.325C48.5866 157.002 47.855 156.858 47.1725 156.577C46.4897 156.295 45.8694 155.882 45.3466 155.36C44.8241 154.839 44.4097 154.219 44.1269 153.537C43.8444 152.855 43.6994 152.123 43.7 151.385V47.155C43.6994 46.4178 43.8441 45.6878 44.1256 45.0066C44.4072 44.3253 44.8203 43.7063 45.3413 43.185C45.8625 42.6635 46.481 42.2497 47.1619 41.9675C47.8428 41.6853 48.5728 41.54 49.31 41.54H188.31C189.049 41.5375 189.781 41.6806 190.464 41.9619C191.148 42.2428 191.768 42.656 192.292 43.1778C192.815 43.6997 193.23 44.3194 193.513 45.0019C193.795 45.6844 193.941 46.4163 193.94 47.155Z"
          stroke="#263238" stroke-width="0.772005" stroke-linecap="round" stroke-linejoin="round"/>
    <path d="M43.7 47.155H193.94" stroke="#263238" stroke-width="0.772005" stroke-linecap="round"
          stroke-linejoin="round"/>
    <path d="M56.225 44.5C56.225 44.7256 56.1581 44.9459 56.0328 45.1334C55.9075 45.3209 55.7297 45.4669 55.5212 45.5531C55.3128 45.6394 55.0837 45.6622 54.8625 45.6181C54.6416 45.574 54.4384 45.4656 54.2788 45.3062C54.1194 45.1465 54.0109 44.9434 53.9669 44.7225C53.9228 44.5012 53.9456 44.2722 54.0319 44.0637C54.1181 43.8553 54.2641 43.6775 54.4516 43.5522C54.6391 43.4269 54.8597 43.36 55.085 43.36C55.3875 43.36 55.6772 43.48 55.8912 43.6937C56.105 43.9078 56.225 44.1975 56.225 44.5Z"
          fill="#92E3A9"/>
    <path d="M61.62 44.5C61.6181 44.7259 61.5491 44.9459 61.4216 45.1325C61.2941 45.3191 61.1144 45.4638 60.9047 45.5478C60.695 45.6319 60.465 45.6519 60.2441 45.605C60.0231 45.5584 59.8209 45.4469 59.6634 45.2853C59.5056 45.1234 59.3997 44.9184 59.3587 44.6963C59.3181 44.4741 59.3441 44.2447 59.4338 44.0375C59.5234 43.83 59.6725 43.6541 59.8625 43.5316C60.0522 43.4094 60.2741 43.3459 60.5 43.35C60.8006 43.3553 61.0869 43.4791 61.2969 43.6944C61.5066 43.9097 61.6228 44.1994 61.62 44.5Z"
          fill="#92E3A9"/>
    <path d="M67 44.5C67 44.7256 66.9331 44.9459 66.8078 45.1334C66.6825 45.3209 66.5047 45.4669 66.2962 45.5531C66.0878 45.6394 65.8587 45.6622 65.6375 45.6181C65.4166 45.574 65.2134 45.4656 65.0541 45.3062C64.8944 45.1465 64.7859 44.9434 64.7419 44.7225C64.6978 44.5012 64.7206 44.2722 64.8069 44.0637C64.8931 43.8553 65.0391 43.6775 65.2266 43.5522C65.4141 43.4269 65.6347 43.36 65.86 43.36C66.0097 43.36 66.1578 43.3894 66.2962 43.4469C66.4347 43.504 66.5603 43.5881 66.6662 43.6937C66.7719 43.7997 66.8559 43.9253 66.9131 44.0637C66.9706 44.2022 67 44.3503 67 44.5Z"
          fill="#92E3A9"/>
    <path d="M142.815 106.8C142.815 111.52 141.415 116.134 138.793 120.059C136.171 123.983 132.443 127.042 128.083 128.848C123.722 130.655 118.923 131.127 114.294 130.207C109.665 129.286 105.413 127.013 102.075 123.675C98.7372 120.338 96.4644 116.085 95.5434 111.456C94.6228 106.827 95.0953 102.028 96.9016 97.6672C98.7078 93.3066 101.767 89.5794 105.691 86.9569C109.616 84.3347 114.23 82.935 118.95 82.935C125.253 82.935 131.301 85.4287 135.772 89.8719C140.243 94.315 142.775 100.347 142.815 106.65V106.8Z"
          stroke="#263238" stroke-width="3.08802" stroke-miterlimit="10"/>
    <path d="M231.4 53H146.46C143.362 53 140.85 55.5116 140.85 58.61V77.465C140.85 80.5634 143.362 83.075 146.46 83.075H231.4C234.498 83.075 237.01 80.5634 237.01 77.465V58.61C237.01 55.5116 234.498 53 231.4 53Z"
          fill="white" stroke="#263238" stroke-width="0.772005" stroke-miterlimit="10"/>
    <path d="M157.68 67.905H223.215" stroke="#263238" stroke-width="0.772005" stroke-miterlimit="10"/>
    <path d="M155.635 67.905L165.985 60.61H192.345L203.1 67.905" stroke="#263238" stroke-width="0.772005"
          stroke-miterlimit="10"/>
    <path d="M205.14 67.905C205.14 68.3097 205.02 68.7053 204.795 69.0416C204.57 69.3781 204.25 69.6403 203.877 69.7947C203.503 69.9494 203.091 69.9897 202.694 69.9103C202.298 69.8309 201.933 69.6356 201.647 69.3494C201.362 69.0628 201.167 68.6978 201.089 68.3009C201.01 67.9037 201.052 67.4925 201.207 67.1191C201.363 66.7453 201.626 66.4262 201.963 66.2022C202.299 65.9781 202.695 65.8591 203.1 65.86C203.642 65.8612 204.16 66.0775 204.543 66.4606C204.925 66.8441 205.14 67.3634 205.14 67.905Z"
          fill="#92E3A9" stroke="#263238" stroke-width="0.772005" stroke-miterlimit="10"/>
    <path d="M165.985 62.655C167.114 62.655 168.03 61.7394 168.03 60.61C168.03 59.4806 167.114 58.565 165.985 58.565C164.856 58.565 163.94 59.4806 163.94 60.61C163.94 61.7394 164.856 62.655 165.985 62.655Z"
          fill="#92E3A9" stroke="#263238" stroke-width="0.772005" stroke-miterlimit="10"/>
    <path d="M194.385 60.61C194.386 61.015 194.267 61.411 194.042 61.7481C193.818 62.085 193.499 62.3481 193.125 62.5035C192.751 62.6588 192.339 62.6997 191.942 62.621C191.545 62.5422 191.18 62.3472 190.894 62.061C190.608 61.7747 190.413 61.41 190.334 61.0128C190.255 60.6156 190.296 60.2041 190.452 59.83C190.607 59.4563 190.87 59.1369 191.207 58.9125C191.544 58.6881 191.94 58.5691 192.345 58.57C192.886 58.5713 193.404 58.7866 193.786 59.1691C194.168 59.5513 194.384 60.0694 194.385 60.61Z"
          fill="#92E3A9" stroke="#263238" stroke-width="0.772005" stroke-miterlimit="10"/>
    <path d="M155.635 67.905L165.985 75.2H214.565L223.215 67.905" stroke="#263238" stroke-width="0.772005"
          stroke-miterlimit="10"/>
    <path d="M183.855 75.2C183.855 75.6044 183.735 76 183.51 76.3363C183.286 76.6725 182.966 76.9347 182.592 77.0894C182.219 77.2441 181.808 77.2847 181.411 77.2056C181.014 77.1269 180.65 76.9319 180.364 76.6459C180.078 76.36 179.883 75.9956 179.804 75.5991C179.725 75.2022 179.766 74.7909 179.921 74.4175C180.075 74.0438 180.337 73.7244 180.674 73.4997C181.01 73.275 181.406 73.155 181.81 73.155C182.352 73.155 182.872 73.3703 183.256 73.7541C183.64 74.1375 183.855 74.6575 183.855 75.2Z"
          fill="#92E3A9" stroke="#263238" stroke-width="0.772005" stroke-miterlimit="10"/>
    <path d="M168.03 75.2C168.03 75.6044 167.91 76 167.685 76.3363C167.461 76.6725 167.141 76.9347 166.768 77.0894C166.394 77.2441 165.983 77.2847 165.586 77.2056C165.189 77.1269 164.825 76.9319 164.539 76.6459C164.253 76.36 164.058 75.9956 163.979 75.5991C163.9 75.2022 163.941 74.7909 164.096 74.4175C164.25 74.0438 164.513 73.7244 164.849 73.4997C165.185 73.275 165.581 73.155 165.985 73.155C166.528 73.155 167.048 73.3703 167.431 73.7541C167.815 74.1375 168.03 74.6575 168.03 75.2Z"
          fill="#92E3A9" stroke="#263238" stroke-width="0.772005" stroke-miterlimit="10"/>
    <path d="M216.61 75.2C216.61 75.6044 216.49 76 216.265 76.3363C216.041 76.6725 215.721 76.9347 215.348 77.0894C214.974 77.2441 214.563 77.2847 214.166 77.2056C213.769 77.1269 213.405 76.9319 213.119 76.6459C212.833 76.36 212.638 75.9956 212.559 75.5991C212.48 75.2022 212.521 74.7909 212.676 74.4175C212.83 74.0438 213.093 73.7244 213.429 73.4997C213.765 73.275 214.161 73.155 214.565 73.155C215.108 73.155 215.628 73.3703 216.011 73.7541C216.395 74.1375 216.61 74.6575 216.61 75.2Z"
          fill="#92E3A9" stroke="#263238" stroke-width="0.772005" stroke-miterlimit="10"/>
    <path d="M223.215 69.95C224.344 69.95 225.26 69.0344 225.26 67.905C225.26 66.7756 224.344 65.86 223.215 65.86C222.086 65.86 221.17 66.7756 221.17 67.905C221.17 69.0344 222.086 69.95 223.215 69.95Z"
          fill="#92E3A9" stroke="#263238" stroke-width="0.772005" stroke-miterlimit="10"/>
    <path d="M157.68 67.905C157.68 68.3097 157.56 68.7053 157.335 69.0416C157.11 69.3781 156.79 69.6403 156.417 69.7947C156.043 69.9494 155.631 69.9897 155.234 69.9103C154.838 69.8309 154.473 69.6356 154.187 69.3494C153.901 69.0628 153.707 68.6978 153.629 68.3009C153.55 67.9037 153.592 67.4925 153.747 67.1191C153.903 66.7453 154.166 66.4262 154.503 66.2022C154.839 65.9781 155.235 65.8591 155.64 65.86C156.182 65.8612 156.7 66.0775 157.083 66.4606C157.465 66.8441 157.68 67.3634 157.68 67.905Z"
          fill="#92E3A9" stroke="#263238" stroke-width="0.772005" stroke-miterlimit="10"/>
    <path d="M96.035 116.35H47.1C44.0016 116.35 41.49 118.862 41.49 121.96V170.895C41.49 173.993 44.0016 176.505 47.1 176.505H96.035C99.1334 176.505 101.645 173.993 101.645 170.895V121.96C101.645 118.862 99.1334 116.35 96.035 116.35Z"
          fill="white" stroke="#263238" stroke-width="0.772005" stroke-miterlimit="10"/>
    <path d="M64.045 150.695L56.255 165.84H91.565" stroke="#263238" stroke-width="0.772005" stroke-linecap="round"
          stroke-linejoin="round"/>
    <path d="M91.565 127.815L75.085 138.77L91.565 143.73" stroke="#263238" stroke-width="0.772005"
          stroke-linecap="round" stroke-linejoin="round"/>
    <path d="M95.46 123.92H87.67V131.71H95.46V123.92Z" fill="#92E3A9" stroke="#263238" stroke-width="0.772005"
          stroke-miterlimit="10"/>
    <path d="M95.46 139.835H87.67V147.625H95.46V139.835Z" fill="#92E3A9" stroke="#263238" stroke-width="0.772005"
          stroke-miterlimit="10"/>
    <path d="M78.98 134.875H71.19V142.665H78.98V134.875Z" fill="#92E3A9" stroke="#263238" stroke-width="0.772005"
          stroke-miterlimit="10"/>
    <path d="M67.94 146.8H60.15V154.59H67.94V146.8Z" fill="#92E3A9" stroke="#263238" stroke-width="0.772005"
          stroke-miterlimit="10"/>
    <path d="M60.15 161.94H52.36V169.73H60.15V161.94Z" fill="#92E3A9" stroke="#263238" stroke-width="0.772005"
          stroke-miterlimit="10"/>
    <path d="M95.46 161.94H87.67V169.73H95.46V161.94Z" fill="#92E3A9" stroke="#263238" stroke-width="0.772005"
          stroke-miterlimit="10"/>
    <path d="M67.51 92.775H18.575C15.4767 92.775 12.965 95.2866 12.965 98.385V147.32C12.965 150.418 15.4767 152.93 18.575 152.93H67.51C70.6084 152.93 73.12 150.418 73.12 147.32V98.385C73.12 95.2866 70.6084 92.775 67.51 92.775Z"
          fill="white" stroke="#263238" stroke-width="0.772005" stroke-miterlimit="10"/>
    <path d="M59.345 98.595H19.33V101.695H59.345V98.595Z" fill="#92E3A9"/>
    <path d="M42.45 103.7H19.33V106.8H42.45V103.7Z" fill="#92E3A9"/>
    <path d="M32.795 108.805H19.33V111.905H32.795V108.805Z" fill="#92E3A9"/>
    <path d="M41.49 113.905H19.33V117.005H41.49V113.905Z" fill="#92E3A9"/>
    <path d="M53.875 119.01H19.33V122.11H53.875V119.01Z" fill="#92E3A9"/>
    <path d="M42.45 124.11H19.33V127.21H42.45V124.11Z" fill="#92E3A9"/>
    <path d="M35.46 129.215H19.33V132.315H35.46V129.215Z" fill="#92E3A9"/>
    <path d="M45.445 134.32H19.33V137.42H45.445V134.32Z" fill="#92E3A9"/>
    <path d="M50.99 139.42H19.33V142.52H50.99V139.42Z" fill="#92E3A9"/>
    <path d="M59.345 144.525H19.33V147.625H59.345V144.525Z" fill="#92E3A9"/>
    <path opacity="0.3" d="M59.345 98.595H19.33V101.695H59.345V98.595Z" fill="black"/>
    <path opacity="0.3" d="M42.45 103.7H19.33V106.8H42.45V103.7Z" fill="black"/>
    <path opacity="0.3" d="M32.795 108.805H19.33V111.905H32.795V108.805Z" fill="black"/>
    <path opacity="0.3" d="M41.49 113.905H19.33V117.005H41.49V113.905Z" fill="black"/>
    <path opacity="0.3" d="M53.875 119.01H19.33V122.11H53.875V119.01Z" fill="black"/>
    <path opacity="0.3" d="M42.45 124.11H19.33V127.21H42.45V124.11Z" fill="black"/>
    <path opacity="0.3" d="M35.46 129.215H19.33V132.315H35.46V129.215Z" fill="black"/>
    <path opacity="0.3" d="M45.445 134.32H19.33V137.42H45.445V134.32Z" fill="black"/>
    <path opacity="0.3" d="M50.99 139.42H19.33V142.52H50.99V139.42Z" fill="black"/>
    <path opacity="0.3" d="M59.345 144.525H19.33V147.625H59.345V144.525Z" fill="black"/>
    <path d="M45.095 87.5H59.655C60.3578 87.5 61.0319 87.7791 61.5288 88.2763C62.0259 88.7731 62.305 89.4472 62.305 90.15V92.785H42.445V90.15C42.445 89.4472 42.7241 88.7731 43.2213 88.2763C43.7181 87.7791 44.3922 87.5 45.095 87.5Z"
          fill="white" stroke="#263238" stroke-width="0.772005" stroke-miterlimit="10"/>
    <path d="M35.25 87.5H49.64C50.3666 87.5 51.0638 87.7888 51.5775 88.3025C52.0913 88.8163 52.38 89.5135 52.38 90.24V92.79H32.5V90.24C32.5 89.8794 32.5712 89.5222 32.7094 89.1891C32.8478 88.856 33.0506 88.5535 33.3059 88.2991C33.5616 88.0444 33.8647 87.8428 34.1984 87.7056C34.5319 87.5685 34.8894 87.4988 35.25 87.5Z"
          fill="#92E3A9" stroke="#263238" stroke-width="0.772005" stroke-miterlimit="10"/>
    <path d="M24.185 87.5H38.925C39.6044 87.4972 40.2572 87.7644 40.74 88.2425C41.2228 88.7206 41.4959 89.3706 41.5 90.05V92.775H21.625V90.05C21.629 89.3731 21.9003 88.7253 22.3798 88.2478C22.8593 87.77 23.5082 87.5013 24.185 87.5Z"
          fill="white" stroke="#263238" stroke-width="0.772005" stroke-miterlimit="10"/>
    <path d="M211.59 197.77H222.525" stroke="#263238" stroke-width="0.772005" stroke-linecap="round"
          stroke-linejoin="round"/>
    <path d="M39.335 197.77H205.835" stroke="#263238" stroke-width="0.772005" stroke-linecap="round"
          stroke-linejoin="round"/>
    <path d="M208.59 191.365C208.59 191.365 210.525 189.78 211.45 191.51C212.245 193.01 210.34 194.685 208.165 194.685V195.95C208.165 195.95 212.825 196.075 213.165 192.15C213.505 188.225 208.57 189.31 208.57 189.31L208.59 191.365Z"
          fill="#92E3A9" stroke="#263238" stroke-width="0.772005" stroke-linecap="round" stroke-linejoin="round"/>
    <path d="M208.43 197.745H199.1L197.7 186.03H209.83L208.43 197.745Z" fill="#92E3A9" stroke="#263238"
          stroke-width="0.772005" stroke-linecap="round" stroke-linejoin="round"/>
    <path d="M209.81 185.47H197.72C197.367 185.47 197.08 185.757 197.08 186.11V186.17C197.08 186.523 197.367 186.81 197.72 186.81H209.81C210.163 186.81 210.45 186.523 210.45 186.17V186.11C210.45 185.757 210.163 185.47 209.81 185.47Z"
          fill="white" stroke="#263238" stroke-width="0.772005" stroke-linecap="round" stroke-linejoin="round"/>
    <path d="M202.18 184.195C202.18 184.195 206.47 181.62 205.07 178.665C203.67 175.71 198.935 173.765 198.935 169.165C198.935 165.205 203.145 163.74 205.895 162.165"
          stroke="#263238" stroke-width="0.772005" stroke-linecap="round" stroke-linejoin="round"/>
    <path d="M203.59 164.96C203.03 165.339 202.55 165.825 202.179 166.39C201.807 166.955 201.551 167.588 201.424 168.252C201.298 168.917 201.304 169.6 201.443 170.262C201.581 170.923 201.848 171.552 202.23 172.11"
          stroke="#263238" stroke-width="0.772005" stroke-linecap="round" stroke-linejoin="round"/>
    <path d="M205.925 176.635C206.785 178.285 207.023 180.189 206.595 182" stroke="#263238" stroke-width="0.772005"
          stroke-linecap="round" stroke-linejoin="round"/>
    <path d="M91 196.8C91 196.8 90.805 193.44 87.84 192.255C84.875 191.07 83.29 191.56 76.675 193.34C72.5034 194.431 68.2313 195.093 63.925 195.315V196.815L91 196.8Z"
          fill="white" stroke="#263238" stroke-width="0.772005" stroke-linecap="round" stroke-linejoin="round"/>
    <path d="M90.905 196.8C90.905 196.8 91.1 193.44 94.065 192.255C97.03 191.07 98.61 191.56 105.23 193.34C109.408 194.433 113.687 195.095 118 195.315V196.815L90.905 196.8Z"
          fill="white" stroke="#263238" stroke-width="0.772005" stroke-linecap="round" stroke-linejoin="round"/>
    <path d="M119.075 196.205H63.245V197.29H119.075V196.205Z" fill="#263238" stroke="#263238" stroke-width="0.772005"
          stroke-linecap="round" stroke-linejoin="round"/>
    <path d="M92.345 196.74C92.6109 195.947 93.0406 195.22 93.6069 194.605C94.1728 193.989 94.8622 193.501 95.63 193.17"
          stroke="#263238" stroke-width="0.772005" stroke-linecap="round" stroke-linejoin="round"/>
    <path d="M94.035 196.5C94.4297 195.82 94.9653 195.233 95.6062 194.777C96.2472 194.322 96.9781 194.009 97.75 193.86C99.595 193.52 101.475 194.155 103.215 194.86C104.955 195.565 108 196.5 109.86 196.5"
          stroke="#263238" stroke-width="0.772005" stroke-linecap="round" stroke-linejoin="round"/>
    <path d="M74.7 196.195C76.5487 195.995 78.3609 195.541 80.085 194.845C81.1237 194.358 82.1966 193.946 83.295 193.615C84.4062 193.288 85.6013 193.408 86.625 193.95C87.0653 194.236 87.4525 194.597 87.77 195.015C88.2113 195.573 88.5759 196.186 88.855 196.84"
          stroke="#263238" stroke-width="0.772005" stroke-linecap="round" stroke-linejoin="round"/>
    <path d="M84.91 194.685C85.5184 194.764 86.0806 195.052 86.5 195.5C86.9059 195.949 87.2597 196.442 87.555 196.97"
          stroke="#263238" stroke-width="0.772005" stroke-linecap="round" stroke-linejoin="round"/>
    <path d="M133.3 196.26C131.257 197.196 129.046 197.707 126.8 197.76C123.34 197.76 116.3 190.61 116.3 190.61C116.3 190.61 116.045 189.84 116.595 186.96C117.145 184.08 122.315 157.655 122.315 157.655C122.315 157.655 122.925 151.505 126.42 147.73C129.915 143.955 136.775 142.61 136.775 142.61C136.775 142.61 151.945 136.005 160.455 138.045C168.955 141.42 178.24 144.85 181.34 147.51C184.44 150.17 192.06 171.51 194.7 182.47C194.7 182.47 188.885 194.825 183.46 198.295C178.035 201.765 164.96 200.635 164.96 200.635L133.3 196.26Z"
          fill="#92E3A9"/>
    <path opacity="0.3"
          d="M131.375 174.785L129.18 145.66C127.743 146.242 126.47 147.165 125.469 148.348C124.468 149.532 123.77 150.942 123.435 152.455C122.3 157.665 115.435 189.73 116.285 190.62C117.135 191.51 121.61 195.345 121.61 195.345C121.61 195.345 126.435 199.47 131.375 197.005C136.315 194.54 131.375 174.785 131.375 174.785Z"
          fill="black"/>
    <path opacity="0.3"
          d="M153.155 148.36C152.9 149.23 151.805 149.51 150.895 149.52C148.28 149.548 145.744 148.624 143.76 146.92C143.4 146.605 136.965 150.58 136.225 150.975C135.055 151.605 133.91 152.295 132.725 152.88C131.615 153.425 130.565 153.695 129.84 154.795C129.359 155.606 128.997 156.482 128.765 157.395C127.205 162.505 125.56 167.6 124.14 172.745C122.91 177.2 121.255 182.13 121.325 186.805C121.326 187.14 121.349 187.474 121.395 187.805C122.395 193.78 133.305 196.26 133.305 196.26C133.305 196.26 129.445 198.625 126.805 197.76C124.165 196.895 117.995 193.365 116.05 190.065L121.405 162.065C121.405 162.065 121.34 148.565 131.07 144.565C140.8 140.565 144.62 139.95 144.62 139.95L153.155 148.36Z"
          fill="black"/>
    <path opacity="0.3"
          d="M189.06 192.405C189.06 192.405 193.31 187.71 194.685 182.48C194.685 182.48 188.185 161.01 186.495 156.98C184.805 152.95 182.07 148.375 180.155 146.415L177.045 190.605L176.39 199.905C176.39 199.905 179.89 200.05 182.315 198.905C184.74 197.76 189.06 192.405 189.06 192.405Z"
          fill="black"/>
    <path d="M176.39 199.92L180.155 146.42C180.155 146.42 161.925 137.92 157.155 137.11C152.385 136.3 129.22 145.43 129.22 145.43L132.59 196.74"
          stroke="#263238" stroke-width="0.772005" stroke-linecap="round" stroke-linejoin="round"/>
    <path d="M143.53 111L141.66 119.975C141.66 119.975 139.26 118.28 138.75 120.195C138.24 122.11 139.8 124.745 142.815 124.89C142.815 124.89 143.635 128.955 146.315 131.715C147.577 133.061 148.912 134.337 150.315 135.535C150.315 135.535 151.37 142.35 154.815 142.61C158.26 142.87 158.93 139.77 159.625 135.46C159.625 135.46 162.6 130.3 163.47 127.51C163.47 127.51 167.12 124.965 164.685 121.25C164.685 121.25 165.89 112.365 163.795 110.865C161.7 109.365 147.185 110.13 143.53 111Z"
          fill="white"/>
    <path d="M154.645 143.32C154.645 143.32 153.49 149.14 152.77 149.285C152.05 149.43 149.2 146.71 146.71 143.32C144.22 139.93 144.605 139.925 144.605 139.925C144.605 139.925 145.76 135.475 146.71 134.825C147.66 134.175 151.085 134.255 151.085 134.255L158.585 133.97C158.585 133.97 161.085 133.615 162.63 134.61C164.175 135.605 164.925 139.925 164.925 139.925C164.925 139.925 160.425 148.22 156.755 149.285C155.937 147.339 155.232 145.347 154.645 143.32Z"
          fill="white"/>
    <path d="M130.06 187.02L131.055 173.06" stroke="#263238" stroke-width="0.772005" stroke-miterlimit="10"/>
    <path d="M164.925 113.57C164.925 113.57 160.665 115.22 156.9 114.905C156.9 114.905 152.925 118.905 147.835 116.53C147.835 116.53 143.245 128.96 153.77 137.09C151.108 136.069 148.726 134.43 146.822 132.308C144.917 130.186 143.544 127.642 142.815 124.885C142.815 124.885 139.815 125.35 138.75 120.885C138.75 120.885 137.885 119.16 141.83 119.15L141.66 110.5L151.795 112.535L159.07 111.47L164.925 113.57Z"
          fill="#92E3A9"/>
    <path opacity="0.4"
          d="M164.925 113.57C164.925 113.57 160.665 115.22 156.9 114.905C156.9 114.905 152.925 118.905 147.835 116.53C147.835 116.53 144.125 129.84 153.335 136.865C153.335 136.865 144.98 133.97 142.81 124.865C142.81 124.865 139.84 124.55 138.745 120.865C138.745 120.865 137.88 119.14 141.825 119.13L141.655 110.48L151.79 112.515L159.065 111.45L164.925 113.57Z"
          fill="white"/>
    <path d="M153.34 130.8C153.67 131.067 154.016 131.314 154.375 131.54C154.61 131.69 154.965 131.81 155.13 131.59C155.187 131.5 155.216 131.396 155.215 131.29C155.365 128.835 154.79 126.355 155.14 123.92"
          stroke="#263238" stroke-width="0.772005" stroke-linecap="round" stroke-linejoin="round"/>
    <path d="M156.755 122.525C156.755 122.525 157.975 119.835 161.12 122.25" stroke="#263238" stroke-width="1.54401"
          stroke-linecap="round" stroke-linejoin="round"/>
    <path d="M152.8 123C152.8 123 150.5 120.14 147.65 123.09" stroke="#263238" stroke-width="1.54401"
          stroke-linecap="round" stroke-linejoin="round"/>
    <path d="M149.695 135.105C149.695 135.105 150.92 142.44 155.24 142.665C158.74 142.845 159.43 136.78 159.565 134.61"
          stroke="#263238" stroke-width="0.772005" stroke-linecap="round" stroke-linejoin="round"/>
    <path d="M142.25 120.79C142.25 120.79 140.345 118.515 139.055 119.625C137.765 120.735 139.7 125.625 142.815 124.885"
          stroke="#263238" stroke-width="0.772005" stroke-linecap="round" stroke-linejoin="round"/>
    <path d="M150.5 131.71C151.44 132.843 152.726 133.637 154.16 133.97" stroke="#263238" stroke-width="0.772005"
          stroke-linecap="round" stroke-linejoin="round"/>
    <path d="M150.29 127.455C150.563 127.455 150.785 126.985 150.785 126.405C150.785 125.825 150.563 125.355 150.29 125.355C150.017 125.355 149.795 125.825 149.795 126.405C149.795 126.985 150.017 127.455 150.29 127.455Z"
          fill="#263238"/>
    <path d="M158.81 126.405C158.81 126.985 158.585 127.455 158.31 127.455C158.035 127.455 157.81 126.985 157.81 126.405C157.81 125.825 158.03 125.35 158.31 125.35C158.59 125.35 158.81 125.825 158.81 126.405Z"
          fill="#263238"/>
    <path d="M154.785 142.605C154.785 142.605 153.585 149.14 152.785 149.285C151.985 149.43 145.83 143.85 144.62 139.925C144.62 139.925 145.92 134.795 147.12 134.61C147.685 134.52 148.335 134.435 148.85 134.37"
          stroke="#263238" stroke-width="0.772005" stroke-linecap="round" stroke-linejoin="round"/>
    <path d="M154.785 142.605C154.785 142.605 155.945 149.14 156.755 149.285C157.565 149.43 163.715 143.85 164.925 139.925C164.925 139.925 163.455 134.83 162.34 134.4C161.628 134.133 160.896 133.926 160.15 133.78"
          stroke="#263238" stroke-width="0.772005" stroke-linecap="round" stroke-linejoin="round"/>
    <path d="M143.405 126.53C144.195 127.9 145.175 123.075 144.76 121.53C144.48 120.53 143.935 119.56 143.885 118.53C143.835 117.36 144.385 116.265 144.815 115.17C145.245 114.075 145.47 112.77 144.815 111.79C147.086 113.396 149.751 114.352 152.525 114.555C153.232 114.655 153.953 114.597 154.635 114.385C154.973 114.274 155.277 114.077 155.517 113.815C155.757 113.552 155.925 113.232 156.005 112.885C158.605 113.215 161.18 113.555 163.77 113.2C165.945 112.905 169.325 112.355 170.44 110.135C172.075 106.895 167.865 103.53 165.38 102.395C159.38 99.65 151.27 99.185 145.85 103.495C145.294 103.977 144.711 104.428 144.105 104.845C142.91 105.595 140.19 106.175 139.235 107.22C137.955 108.625 139.56 119.475 139.56 119.475C139.56 119.475 141.65 118.505 142.51 121.74C143.11 123.92 142.605 125.15 143.405 126.53Z"
          fill="#263238"/>
    <path d="M163.065 112.5C163.03 112.634 163.007 112.772 162.995 112.91C162.939 114.141 163.086 115.372 163.43 116.555C163.565 117.085 163.76 117.6 163.845 118.14C164.045 119.425 164.045 120.665 164.995 121.71C164.995 121.71 166.815 115.345 166.08 110.795C165.995 110.295 165.83 108.945 165.025 109.19C164.435 109.37 164.025 110.38 163.765 110.87C163.475 111.387 163.24 111.933 163.065 112.5Z"
          fill="#263238"/>
    <path d="M137.945 106.5C138.75 105.941 139.676 105.582 140.647 105.451C141.618 105.321 142.606 105.423 143.53 105.75C144.983 103.162 147.006 100.94 149.445 99.25"
          stroke="#263238" stroke-width="0.772005" stroke-linecap="round" stroke-linejoin="round"/>
    <path opacity="0.47"
          d="M145.765 104.97C145.765 104.97 155.565 111.94 161.5 110.215C167.435 108.49 165.775 103.385 165.775 103.385"
          stroke="white" stroke-width="0.772005" stroke-linecap="round" stroke-linejoin="round"/>
    <path opacity="0.47" d="M146.71 103.8C146.71 103.8 159.015 109.455 161.085 101.45" stroke="white"
          stroke-width="0.772005" stroke-linecap="round" stroke-linejoin="round"/>
    <path d="M149.695 135.105C149.695 135.105 152.035 139.65 153.87 139.575C155.705 139.5 159.07 134.61 159.07 134.61C159.07 134.61 157.255 136.95 154.5 137.19C152.685 137.35 149.695 135.105 149.695 135.105Z"
          fill="#263238"/>
    <path d="M163.855 168.29L164.235 168.115C164.448 168.021 164.622 167.857 164.731 167.651C164.838 167.445 164.874 167.208 164.83 166.98L164.755 166.52C164.718 166.291 164.605 166.081 164.433 165.925C164.261 165.768 164.042 165.675 163.81 165.66L163.35 165.62C163.168 165.607 162.993 165.546 162.843 165.443C162.693 165.341 162.573 165.2 162.495 165.035C162.37 164.775 162.24 164.535 162.095 164.275C162.004 164.118 161.956 163.941 161.956 163.76C161.956 163.579 162.004 163.402 162.095 163.245L162.33 162.845C162.445 162.643 162.491 162.41 162.462 162.18C162.432 161.95 162.327 161.736 162.165 161.57L161.835 161.245C161.674 161.073 161.459 160.964 161.226 160.936C160.992 160.907 160.757 160.962 160.56 161.09L160.155 161.33C159.998 161.421 159.821 161.469 159.64 161.469C159.459 161.469 159.281 161.421 159.125 161.33C158.469 160.951 157.764 160.663 157.03 160.475C156.851 160.428 156.687 160.334 156.557 160.202C156.427 160.07 156.334 159.905 156.29 159.725L156.17 159.225C156.12 158.992 155.989 158.785 155.801 158.64C155.612 158.495 155.377 158.422 155.14 158.435H154.68C154.443 158.422 154.209 158.494 154.021 158.638C153.832 158.782 153.701 158.988 153.65 159.22L153.52 159.72C153.478 159.898 153.388 160.061 153.261 160.191C153.133 160.322 152.972 160.415 152.795 160.46C152.535 160.535 152.295 160.61 152.035 160.705C151.862 160.767 151.677 160.782 151.497 160.748C151.317 160.715 151.149 160.634 151.01 160.515L150.595 160.16C150.425 160.003 150.207 159.91 149.976 159.897C149.745 159.883 149.517 159.949 149.33 160.085L148.965 160.335C148.764 160.462 148.614 160.657 148.544 160.884C148.473 161.111 148.486 161.356 148.58 161.575L148.765 162.075C148.832 162.246 148.852 162.431 148.824 162.612C148.796 162.792 148.72 162.963 148.605 163.105C148.439 163.301 148.284 163.507 148.14 163.72C148.035 163.873 147.891 163.994 147.723 164.072C147.555 164.149 147.369 164.18 147.185 164.16L146.685 164.115C146.452 164.084 146.217 164.135 146.018 164.261C145.82 164.386 145.672 164.577 145.6 164.8L145.435 165.25C145.355 165.464 145.348 165.698 145.416 165.917C145.484 166.135 145.623 166.324 145.81 166.455L146.31 166.79C146.458 166.896 146.575 167.04 146.651 167.205C146.726 167.371 146.757 167.554 146.74 167.735C146.709 168.002 146.696 168.271 146.7 168.54C146.695 168.716 146.647 168.888 146.56 169.04C146.473 169.193 146.349 169.322 146.2 169.415L145.7 169.685C145.495 169.797 145.333 169.975 145.242 170.19C145.152 170.405 145.137 170.645 145.2 170.87L145.32 171.32C145.378 171.547 145.512 171.747 145.699 171.887C145.887 172.027 146.116 172.098 146.35 172.09H146.85C147.031 172.088 147.208 172.133 147.366 172.221C147.524 172.308 147.656 172.436 147.75 172.59C147.89 172.84 148.035 173.09 148.195 173.305C148.298 173.454 148.359 173.628 148.373 173.809C148.387 173.99 148.353 174.172 148.275 174.335L148.065 174.775C147.961 174.984 147.932 175.222 147.981 175.45C148.03 175.678 148.155 175.882 148.335 176.03L148.69 176.33C148.867 176.481 149.09 176.567 149.322 176.576C149.555 176.584 149.783 176.513 149.97 176.375L150.34 176.115C150.483 176.012 150.652 175.95 150.827 175.933C151.003 175.916 151.18 175.946 151.34 176.02C151.605 176.145 151.87 176.255 152.145 176.36C152.314 176.422 152.463 176.528 152.578 176.667C152.693 176.806 152.77 176.972 152.8 177.15L152.875 177.6C152.914 177.829 153.028 178.039 153.201 178.195C153.373 178.351 153.593 178.444 153.825 178.46L154.295 178.5C154.526 178.522 154.757 178.466 154.951 178.339C155.146 178.213 155.292 178.025 155.365 177.805L155.51 177.405C155.571 177.232 155.678 177.077 155.818 176.959C155.959 176.84 156.129 176.761 156.31 176.73C156.601 176.683 156.89 176.622 157.175 176.545C157.351 176.498 157.536 176.498 157.711 176.546C157.887 176.593 158.047 176.686 158.175 176.815L158.48 177.125C158.641 177.29 158.852 177.397 159.081 177.427C159.309 177.458 159.541 177.412 159.74 177.295L160.15 177.065C160.357 176.953 160.518 176.774 160.609 176.558C160.7 176.342 160.715 176.101 160.65 175.875L160.535 175.475C160.481 175.296 160.477 175.106 160.523 174.924C160.568 174.743 160.662 174.577 160.795 174.445C161.01 174.234 161.213 174.012 161.405 173.78C161.524 173.637 161.68 173.528 161.857 173.467C162.033 173.405 162.222 173.392 162.405 173.43L162.82 173.51C163.048 173.554 163.284 173.52 163.49 173.412C163.696 173.306 163.86 173.132 163.955 172.92L164.15 172.5C164.252 172.289 164.279 172.05 164.227 171.821C164.174 171.593 164.045 171.389 163.86 171.245L163.55 170.99C163.406 170.88 163.295 170.733 163.228 170.565C163.161 170.397 163.141 170.214 163.17 170.035C163.219 169.729 163.251 169.42 163.265 169.11C163.285 168.934 163.349 168.766 163.452 168.623C163.556 168.479 163.694 168.364 163.855 168.29ZM157.66 168.555C157.661 169.093 157.502 169.62 157.204 170.067C156.906 170.516 156.481 170.865 155.984 171.072C155.487 171.278 154.94 171.333 154.412 171.228C153.884 171.124 153.399 170.865 153.018 170.485C152.637 170.105 152.378 169.62 152.272 169.092C152.167 168.565 152.221 168.017 152.427 167.52C152.632 167.023 152.981 166.598 153.428 166.299C153.876 166 154.402 165.84 154.94 165.84C155.658 165.839 156.347 166.122 156.856 166.628C157.365 167.135 157.652 167.822 157.655 168.54L157.66 168.555Z"
          fill="#263238"/>
    <path d="M130.165 185.14C129.757 185.59 129.31 186.003 128.83 186.375C127.528 187.636 126.552 189.194 125.985 190.915C125.705 191.711 125.705 192.579 125.985 193.375C126.59 194.875 128.51 196.375 130.045 195.415"
          stroke="#263238" stroke-width="0.772005" stroke-linecap="round" stroke-linejoin="round"/>
    <path d="M130.045 182.5C128.58 182.27 127.14 183.12 126.14 184.205C125.14 185.29 124.445 186.63 123.535 187.795"
          stroke="#263238" stroke-width="0.772005" stroke-linecap="round" stroke-linejoin="round"/>
    <path d="M129.93 197.535C127.98 197.914 125.961 197.698 124.135 196.915C122.978 196.293 121.901 195.534 120.925 194.655L117.125 191.515C116.515 191.015 115.84 190.29 116.09 189.54C116.09 189.54 122.44 156.075 123.435 152.455C124.59 148.28 129.24 145.455 129.24 145.455"
          stroke="#263238" stroke-width="0.772005" stroke-linecap="round" stroke-linejoin="round"/>
    <path d="M177.575 185.5C179.21 186.729 180.461 188.4 181.18 190.315C181.749 192.092 182.129 193.923 182.315 195.78C181.315 196.33 179.315 197.78 177.575 197.78"
          stroke="#263238" stroke-width="0.772005" stroke-linecap="round" stroke-linejoin="round"/>
    <path d="M177.79 182.715C179.33 182.305 180.855 183.355 182.02 184.445C183.185 185.535 184.38 186.8 185.965 186.97"
          stroke="#263238" stroke-width="0.772005" stroke-linecap="round" stroke-linejoin="round"/>
    <path d="M178.085 200.105C181.085 199.79 183.785 198.155 185.945 196.07C188.105 193.985 189.765 191.455 191.41 188.95C192.745 186.92 194.1 184.835 194.685 182.48C194.685 182.48 189.42 165.075 186.495 156.98C183.445 148.565 180.155 146.415 180.155 146.415"
          stroke="#263238" stroke-width="0.772005" stroke-linecap="round" stroke-linejoin="round"/>
    <path d="M177.79 182.715C180.505 180.435 184.67 182.28 187.59 183.81" stroke="#263238" stroke-width="0.772005"
          stroke-linecap="round" stroke-linejoin="round"/>
    <path d="M177.57 173.4H130.165V200.645H177.57V173.4Z" fill="white"/>
    <path d="M177.79 200.645H129.93V202.07H177.79V200.645Z" fill="#263238"/>
    <path d="M129.93 200.645L177.575 173.4L177.79 200.645H129.93Z" fill="#263238"/>
    <path opacity="0.9" d="M129.93 200.645L177.575 173.4L177.79 200.645H129.93Z" fill="white"/>
    <path d="M157.364 189.434C158.942 187.856 158.942 185.298 157.364 183.72C155.786 182.143 153.228 182.143 151.65 183.72C150.072 185.298 150.072 187.856 151.65 189.434C153.228 191.011 155.786 191.011 157.364 189.434Z"
          fill="#263238"/>
    <path d="M177.57 173.4H130.165V200.645H177.57V173.4Z" stroke="#263238" stroke-width="0.772005"
          stroke-linecap="round" stroke-linejoin="round"/>
    <path d="M142.03 118.03C142.03 118.03 143.07 127.53 144.39 129.245C145.71 130.96 149.95 137.165 154.57 137.07C159.19 136.975 162.205 131.035 162.96 128.49C163.9 125.267 164.468 121.947 164.655 118.595"
          stroke="#263238" stroke-width="0.772005" stroke-linecap="round" stroke-linejoin="round"/>
    <path d="M163.44 127.5C163.44 127.5 166.865 125.73 164.655 121.24" stroke="#263238" stroke-width="0.772005"
          stroke-linecap="round" stroke-linejoin="round"/>
</svg>
