<svg width="32" height="32" viewBox="0 0 32 32" fill="none" xmlns="http://www.w3.org/2000/svg">
<path d="M16.003 9.16156C12.2194 9.16156 9.16751 12.2134 9.16751 15.997C9.16751 19.7806 12.2194 22.8325 16.003 22.8325C19.7866 22.8325 22.8385 19.7806 22.8385 15.997C22.8385 12.2134 19.7866 9.16156 16.003 9.16156ZM16.003 20.441C13.5579 20.441 11.559 18.448 11.559 15.997C11.559 13.546 13.552 11.5531 16.003 11.5531C18.454 11.5531 20.4469 13.546 20.4469 15.997C20.4469 18.448 18.448 20.441 16.003 20.441V20.441ZM24.7124 8.88195C24.7124 9.76836 23.9985 10.4763 23.1181 10.4763C22.2316 10.4763 21.5237 9.76242 21.5237 8.88195C21.5237 8.00149 22.2376 7.28761 23.1181 7.28761C23.9985 7.28761 24.7124 8.00149 24.7124 8.88195ZM29.2396 10.5001C29.1385 8.36439 28.6507 6.47258 27.0861 4.91393C25.5274 3.35528 23.6356 2.86745 21.4999 2.76037C19.2988 2.63544 12.7013 2.63544 10.5001 2.76037C8.37033 2.8615 6.47853 3.34933 4.91393 4.90798C3.34933 6.46664 2.86745 8.35844 2.76037 10.4942C2.63544 12.6953 2.63544 19.2928 2.76037 21.494C2.8615 23.6297 3.34933 25.5215 4.91393 27.0801C6.47853 28.6388 8.36439 29.1266 10.5001 29.2337C12.7013 29.3586 19.2988 29.3586 21.4999 29.2337C23.6356 29.1326 25.5274 28.6447 27.0861 27.0801C28.6447 25.5215 29.1326 23.6297 29.2396 21.494C29.3646 19.2928 29.3646 12.7013 29.2396 10.5001V10.5001ZM26.396 23.8557C25.932 25.0218 25.0337 25.9201 23.8617 26.39C22.1067 27.0861 17.9424 26.9255 16.003 26.9255C14.0636 26.9255 9.89329 27.0801 8.14427 26.39C6.97825 25.926 6.07995 25.0277 5.60997 23.8557C4.91393 22.1008 5.07455 17.9364 5.07455 15.997C5.07455 14.0576 4.91988 9.88735 5.60997 8.13832C6.074 6.97231 6.9723 6.074 8.14427 5.60402C9.89924 4.90798 14.0636 5.06861 16.003 5.06861C17.9424 5.06861 22.1127 4.91393 23.8617 5.60402C25.0277 6.06805 25.926 6.96636 26.396 8.13832C27.092 9.8933 26.9314 14.0576 26.9314 15.997C26.9314 17.9364 27.092 22.1067 26.396 23.8557Z" fill="#444358"/>
</svg>
