<svg width="24" height="24" viewBox="0 0 24 24" fill="none" xmlns="http://www.w3.org/2000/svg">
<path d="M12 5C12.7956 5 13.5587 5.31607 14.1213 5.87868C14.6839 6.44129 15 7.20435 15 8C15 8.79565 14.6839 9.55871 14.1213 10.1213C13.5587 10.6839 12.7956 11 12 11C11.2044 11 10.4413 10.6839 9.87868 10.1213C9.31607 9.55871 9 8.79565 9 8C9 7.20435 9.31607 6.44129 9.87868 5.87868C10.4413 5.31607 11.2044 5 12 5ZM12 15C14.0885 15 15.929 15.425 17.2103 16.0657C18.5511 16.7361 19 17.4776 19 18V19H5V18C5 17.4776 5.44887 16.7361 6.78971 16.0657C8.071 15.425 9.91146 15 12 15Z" stroke="black" stroke-width="2"/>
</svg>
