<svg width="24" height="24" viewBox="0 0 24 24" fill="none" xmlns="http://www.w3.org/2000/svg">
<path d="M20.5555 2.5H3.44445C1.8212 2.5 0.5 3.80796 0.5 5.42857V17.5714C0.5 19.192 1.8212 20.5 3.44445 20.5H20.5555C22.1788 20.5 23.5 19.192 23.5 17.5714V5.42857C23.5 3.8077 22.1767 2.5 20.5555 2.5ZM7.72222 7.14286C8.79933 7.14286 9.66667 8.00923 9.66667 9.07143C9.66667 10.1336 8.79933 11 7.72222 11C6.64512 11 5.77778 10.1336 5.77778 9.07143C5.77778 8.00948 6.64677 7.14286 7.72222 7.14286ZM11.3889 15.8571H4.05555C3.9918 15.8571 3.94445 15.8055 3.94445 15.75C3.94445 14.352 5.08556 13.2143 6.5 13.2143H8.94445C10.3588 13.2143 11.5 14.3528 11.5 15.75C11.5 15.8047 11.452 15.8571 11.3889 15.8571ZM19.9445 13.4286H15.0555C14.9926 13.4286 14.9445 13.3762 14.9445 13.3214C14.9445 13.2667 14.9926 13.2143 15.0555 13.2143H19.9445C20.0074 13.2143 20.0555 13.2667 20.0555 13.3214C20.0555 13.3762 20.0074 13.4286 19.9445 13.4286ZM19.9445 11H15.0555C14.9926 11 14.9445 10.9476 14.9445 10.8929C14.9445 10.8381 14.9926 10.7857 15.0555 10.7857H19.9445C20.0074 10.7857 20.0555 10.8381 20.0555 10.8929C20.0555 10.9476 20.0074 11 19.9445 11ZM19.9445 8.57143H15.0555C14.9926 8.57143 14.9445 8.51904 14.9445 8.46429C14.9445 8.40953 14.9926 8.35714 15.0555 8.35714H19.9445C20.0074 8.35714 20.0555 8.40953 20.0555 8.46429C20.0555 8.51904 20.0074 8.57143 19.9445 8.57143Z" stroke="white"/>
</svg>
