<svg width="21" height="17" viewBox="0 0 21 17" fill="none" xmlns="http://www.w3.org/2000/svg">
<path d="M19.1929 2.90435L20.392 2.15492C20.4155 2.25981 20.4279 2.36872 20.4279 2.48035V14.4803C20.4279 15.3042 19.7518 15.9803 18.9279 15.9803H2.92792C2.10406 15.9803 1.42792 15.3042 1.42792 14.4803V2.48035C1.42792 2.36872 1.44033 2.25981 1.46384 2.15492L2.66292 2.90435L10.6629 7.90435L10.9279 8.06997L11.1929 7.90435L19.1929 2.90435ZM20.3414 1.98035H18.9279H2.92792H1.5144C1.72187 1.39972 2.27908 0.980347 2.92792 0.980347H18.9279C19.5768 0.980347 20.134 1.39972 20.3414 1.98035ZM18.9279 14.9803H19.4279V14.4803V4.48035V3.57822L18.6629 4.05635L10.9279 8.89072L3.19292 4.05635L2.42792 3.57822V4.48035V14.4803V14.9803H2.92792H18.9279Z" stroke="white"/>
</svg>
